<?xml version="1.0" standalone="no"?>
<!DOCTYPE svg PUBLIC "-//W3C//DTD SVG 20010904//EN"
 "http://www.w3.org/TR/2001/REC-SVG-20010904/DTD/svg10.dtd">
<svg version="1.0" xmlns="http://www.w3.org/2000/svg"
 width="1280.000000pt" height="800.000000pt" viewBox="0 0 1280.000000 800.000000"
 preserveAspectRatio="xMidYMid meet">
<metadata>
Created by potrace 1.15, written by Peter Selinger 2001-2017
</metadata>
<g transform="translate(0.000000,800.000000) scale(0.100000,-0.100000)"
fill="#ffffff" stroke="none">
<path d="M4050 7140 c-871 -70 -1639 -385 -2163 -890 -156 -149 -249 -259
-350 -412 -256 -386 -372 -827 -326 -1246 109 -1003 1024 -1837 2307 -2103
166 -34 350 -59 527 -70 94 -6 180 -13 192 -15 23 -4 504 -437 1128 -1013 365
-337 397 -361 491 -361 63 0 144 39 181 86 31 41 41 116 23 166 -11 32 -17
116 -60 908 -12 212 -27 465 -35 562 l-13 177 -55 89 c-66 106 -131 236 -176
349 -18 45 -38 84 -45 86 -22 9 -88 -21 -122 -54 -19 -18 -41 -52 -50 -76 -21
-55 -17 -151 25 -528 35 -307 56 -533 71 -750 5 -82 12 -184 16 -227 3 -44 1
-79 -4 -82 -5 -3 -256 227 -556 512 -301 284 -564 526 -585 538 -34 18 -62 22
-242 28 -238 8 -356 19 -529 47 -988 162 -1763 723 -2000 1449 -52 158 -72
285 -72 455 0 170 20 297 72 455 226 692 938 1233 1870 1420 258 52 379 63
685 64 295 1 398 -7 635 -50 444 -81 859 -246 1185 -472 217 -150 423 -351
542 -529 19 -28 42 -54 50 -57 9 -4 58 18 117 53 55 32 156 86 224 120 100 50
122 65 122 83 0 58 -311 401 -500 552 -487 388 -1115 635 -1835 721 -152 18
-593 27 -745 15z"/>
<path d="M3571 6203 c-19 -16 -24 -41 -43 -192 -19 -161 -20 -175 -5 -186 9
-7 61 -15 114 -18 286 -19 500 -99 572 -212 104 -165 32 -367 -169 -474 -35
-19 -96 -47 -135 -61 -66 -26 -70 -29 -73 -61 -2 -19 11 -110 28 -203 16 -93
30 -172 30 -177 0 -4 7 -15 16 -23 20 -21 240 -23 267 -3 13 9 23 47 37 152
11 77 20 140 20 141 0 1 37 23 83 47 162 89 296 199 367 301 134 196 154 440
53 641 -80 156 -297 263 -633 310 -80 11 -415 35 -496 35 -7 0 -21 -8 -33 -17z"/>
<path d="M8600 5983 c-529 -25 -1098 -181 -1517 -416 -602 -338 -983 -810
-1105 -1370 -19 -87 -22 -132 -22 -307 0 -174 3 -220 22 -306 111 -512 448
-956 977 -1289 95 -60 100 -65 99 -96 0 -19 -26 -155 -57 -304 -31 -148 -79
-382 -107 -520 -56 -282 -69 -334 -101 -423 -19 -55 -21 -67 -10 -102 36 -122
188 -185 309 -130 24 11 251 161 505 334 254 172 608 410 787 529 l325 216
155 6 c225 9 376 23 540 51 572 96 1084 315 1475 631 111 89 296 275 366 368
417 546 491 1178 205 1760 -426 867 -1592 1428 -2846 1368z m2144 -969 c9 -3
16 -11 16 -16 0 -9 -207 -259 -878 -1060 -96 -115 -177 -208 -181 -208 -8 0
-54 19 -611 260 -245 106 -544 235 -665 287 -121 51 -226 100 -234 108 -31 31
-43 27 1589 415 162 39 432 103 600 144 313 76 337 80 364 70z m260 -868 c92
-384 164 -701 161 -704 -6 -6 -2 -9 -530 366 -231 164 -421 305 -423 313 -1 8
122 163 274 344 331 396 334 399 344 388 4 -4 83 -322 174 -707z m-3134 662
c26 -14 57 -41 75 -66 l30 -44 3 -856 c2 -592 0 -868 -8 -894 -14 -50 -56 -97
-105 -119 -37 -17 -75 -19 -483 -19 -377 0 -448 2 -480 15 -47 20 -79 50 -103
97 -18 36 -19 72 -19 903 0 830 1 867 19 903 23 45 46 66 91 86 29 13 107 15
485 16 448 0 451 0 495 -22z m757 -762 c235 -102 432 -191 437 -198 5 -9 -3
-36 -24 -77 -67 -134 -493 -937 -503 -949 -5 -7 -14 -9 -18 -5 -4 4 -62 238
-129 518 -66 281 -132 557 -146 615 -38 158 -64 270 -64 275 0 12 43 -5 447
-179z m1548 -53 c22 -15 186 -131 365 -258 179 -127 378 -268 443 -314 65 -46
114 -88 110 -92 -9 -9 -192 -54 -698 -174 -126 -30 -504 -120 -840 -200 -928
-221 -907 -217 -918 -206 -5 5 81 179 226 452 129 244 251 477 272 517 21 41
44 76 50 78 6 3 126 -45 267 -106 140 -60 264 -110 275 -110 13 0 79 71 203
220 102 121 189 220 195 220 6 0 28 -12 50 -27z"/>
<path d="M7023 4720 c-30 -12 -39 -47 -17 -71 16 -18 34 -19 358 -19 293 0
345 2 364 16 27 19 29 60 3 74 -24 12 -676 13 -708 0z"/>
<path d="M6881 4506 c-8 -10 -10 -177 -9 -617 l3 -604 500 0 500 0 0 615 0
615 -491 3 c-406 2 -493 0 -503 -12z"/>
<path d="M7334 3119 c-55 -16 -95 -79 -86 -136 5 -33 45 -70 90 -84 35 -10 48
-9 88 6 107 41 112 168 8 211 -37 16 -55 16 -100 3z"/>
<path d="M3905 4177 c-135 -45 -232 -159 -255 -302 -12 -72 2 -170 31 -227 32
-62 94 -124 152 -148 73 -32 207 -32 289 -1 80 31 159 105 200 189 31 63 33
73 33 177 0 96 -3 116 -24 155 -30 58 -85 116 -136 143 -50 26 -226 35 -290
14z"/>
</g>
</svg>
