<?xml version="1.0" standalone="no"?>
<!DOCTYPE svg PUBLIC "-//W3C//DTD SVG 20010904//EN"
 "http://www.w3.org/TR/2001/REC-SVG-20010904/DTD/svg10.dtd">
<svg version="1.0" xmlns="http://www.w3.org/2000/svg"
 width="766.000000pt" height="1280.000000pt" viewBox="0 0 766.000000 1280.000000"
 preserveAspectRatio="xMidYMid meet">
<metadata>
Created by potrace 1.15, written by Peter Selinger 2001-2017
</metadata>
<g transform="translate(0.000000,1280.000000) scale(0.100000,-0.100000)"
fill="#3f51b5" stroke="none">
<path d="M2845 12789 c-379 -24 -771 -89 -1101 -184 -436 -125 -775 -308 -919
-495 -76 -98 -108 -179 -113 -282 -4 -85 -4 -87 20 -93 l24 -6 -48 -97 c-118
-235 -192 -595 -173 -842 4 -52 6 -129 5 -170 -2 -98 11 -149 48 -196 16 -22
33 -55 37 -74 4 -19 25 -91 47 -159 46 -143 46 -120 -3 -456 -16 -110 -29
-224 -29 -253 0 -47 -5 -61 -44 -115 -170 -240 -214 -585 -113 -882 35 -101
62 -151 115 -207 91 -97 212 -149 401 -172 140 -18 197 -32 546 -132 312 -90
328 -97 156 -64 -123 23 -118 25 -250 -85 -255 -212 -451 -521 -529 -835 -32
-128 -42 -210 -42 -368 0 -165 5 -151 -112 -326 -132 -198 -218 -394 -229
-521 l-4 -40 46 -3 47 -3 -5 -207 c-4 -157 -1 -231 10 -307 9 -55 13 -103 9
-106 -4 -4 -52 -24 -107 -45 -96 -36 -98 -38 -68 -46 l32 -8 3 -337 3 -336
-34 -27 c-23 -20 -49 -30 -90 -35 -177 -21 -305 -92 -362 -200 l-24 -46 29
-24 c55 -44 128 -60 274 -58 l132 1 0 -57 c0 -55 -3 -60 -76 -161 -74 -102
-115 -176 -128 -232 -5 -22 0 -31 27 -52 102 -78 223 -72 315 17 l32 31 21
-21 c19 -19 20 -25 10 -72 -6 -29 -11 -79 -11 -111 l0 -60 48 0 c61 0 141 23
177 51 l27 22 61 -21 c90 -31 139 -42 225 -52 72 -8 86 -7 230 31 84 22 156
38 160 35 4 -2 66 13 137 35 71 21 131 37 133 35 2 -3 6 -40 9 -83 6 -87 -8
-217 -37 -338 -18 -75 -34 -274 -45 -536 -2 -64 -9 -127 -14 -141 -14 -36 0
-86 63 -229 36 -83 50 -126 42 -130 -6 -4 -76 -16 -156 -29 -503 -76 -980
-238 -1070 -361 -15 -21 -30 -36 -33 -33 -11 11 -129 -68 -182 -122 -129 -128
-191 -384 -126 -513 44 -86 208 -200 381 -264 106 -39 233 -67 438 -98 224
-33 366 -57 577 -100 286 -58 515 -87 785 -99 360 -16 533 -29 675 -50 80 -12
182 -20 265 -20 148 0 208 11 415 75 66 20 221 56 345 81 256 50 323 70 432
126 170 88 311 267 377 482 60 195 -9 305 -248 391 -38 14 -76 24 -83 23 -16
-4 -16 39 1 187 17 143 10 258 -30 509 l-33 205 -35 -2 -35 -2 -23 78 c-44
152 -40 325 12 597 13 69 29 195 35 280 6 85 18 209 26 275 7 66 14 120 14
121 0 2 24 0 53 -3 70 -7 299 13 389 33 91 21 166 53 230 100 33 25 47 42 43
52 -5 13 5 14 62 9 89 -7 387 9 516 28 407 61 757 186 1027 366 110 73 258
216 321 309 44 65 44 65 56 200 7 74 17 414 22 755 6 342 16 680 23 755 17
175 17 695 0 815 -20 142 -52 293 -82 384 -26 80 -26 84 -8 89 12 3 17 10 14
19 -3 8 -6 19 -6 24 0 5 -10 7 -23 4 -20 -5 -27 2 -57 66 -99 207 -259 398
-470 559 -41 32 -88 71 -103 88 l-28 29 43 7 c24 4 105 22 181 41 170 43 286
47 418 14 108 -28 169 -55 260 -117 98 -66 132 -82 169 -82 64 0 64 70 -1 210
-54 115 -116 205 -171 247 -72 55 -107 76 -298 178 -91 49 -190 104 -220 123
-31 19 -135 116 -235 217 -289 294 -365 329 -760 345 -136 6 -218 14 -255 25
-58 17 -282 96 -289 102 -2 1 8 58 22 125 57 265 83 586 73 903 -27 890 -299
1485 -746 1638 -41 14 -98 28 -127 32 -50 7 -52 8 -78 60 -30 62 -118 148
-198 194 -285 163 -853 240 -1482 200z m1972 -3166 c60 -38 201 -93 240 -93
16 0 25 -8 29 -27 14 -57 75 -194 178 -403 58 -118 106 -216 106 -218 0 -2 -4
-1 -9 2 -13 9 -175 35 -311 51 -72 9 -213 15 -332 15 -115 0 -208 2 -208 5 0
2 14 27 30 55 70 118 113 256 109 344 -3 55 1 72 51 184 30 67 55 122 57 122
1 0 29 -17 60 -37z m-1462 -6259 c8 -38 15 -91 15 -119 0 -67 -23 -216 -54
-346 -50 -210 -57 -269 -41 -347 13 -63 21 -249 15 -373 -1 -34 11 -78 49
-177 28 -72 51 -135 51 -139 0 -5 -57 -28 -127 -52 -71 -25 -134 -46 -140 -49
-9 -3 -13 9 -13 40 0 24 -9 132 -20 239 -11 107 -20 200 -20 207 0 10 -11 12
-43 7 l-44 -7 -19 104 c-28 154 -26 504 4 681 12 70 22 165 22 212 0 55 4 87
12 92 26 17 323 110 331 103 4 -3 14 -37 22 -76z"/>
</g>
</svg>
