<?xml version="1.0" standalone="no"?>
<!DOCTYPE svg PUBLIC "-//W3C//DTD SVG 20010904//EN"
 "http://www.w3.org/TR/2001/REC-SVG-20010904/DTD/svg10.dtd">
<svg version="1.0" xmlns="http://www.w3.org/2000/svg"
 width="300.000000pt" height="292.000000pt" viewBox="0 0 300.000000 292.000000"
 preserveAspectRatio="xMidYMid meet">
<metadata>
Created by potrace 1.10, written by Peter Selinger 2001-2011
</metadata>
<g transform="translate(0.000000,292.000000) scale(0.100000,-0.100000)"
fill="#000000" stroke="none">
<path d="M1680 2830 c-8 -5 -25 -10 -38 -10 -30 0 -100 -44 -140 -88 -55 -61
-65 -95 -66 -214 -1 -65 -5 -108 -11 -109 -5 0 -141 0 -302 1 -257 1 -299 -1
-345 -17 -29 -10 -54 -21 -56 -25 -2 -5 -9 -8 -16 -8 -18 0 -94 -81 -116 -125
-16 -30 -20 -59 -20 -127 0 -80 3 -92 30 -136 35 -58 81 -101 135 -127 37 -19
64 -20 364 -22 178 -1 326 -4 328 -7 3 -2 6 -66 6 -140 l2 -136 -112 0 c-64 0
-114 -4 -118 -10 -3 -5 -15 -10 -26 -10 -11 0 -25 -4 -32 -9 -61 -49 -97 -87
-118 -127 -20 -41 -24 -61 -23 -138 0 -75 4 -98 23 -131 27 -48 93 -111 141
-132 44 -20 203 -24 221 -6 7 7 20 13 29 13 8 0 36 19 61 43 40 37 56 59 90
129 5 10 9 66 9 125 l0 108 340 0 c240 0 343 3 348 11 4 6 17 14 28 18 35 11
98 78 123 131 62 129 22 281 -95 363 -70 50 -88 52 -427 52 l-318 0 3 140 3
141 110 2 c84 2 120 7 150 21 47 22 145 121 145 145 0 9 6 23 13 30 7 7 12 41
12 91 0 50 -5 84 -12 92 -7 6 -13 20 -13 29 0 26 -114 138 -155 153 -24 8
-107 26 -123 26 -9 0 -24 -5 -32 -10z m165 -70 c94 -49 149 -173 121 -277 -8
-29 -24 -67 -37 -85 -52 -76 -102 -98 -239 -105 -142 -8 -140 -5 -140 -183 0
-126 2 -138 21 -156 20 -18 44 -19 343 -24 348 -5 342 -5 415 -65 28 -25 38
-41 70 -118 39 -96 -26 -240 -133 -290 l-57 -27 -314 0 -315 0 -14 -22 c-8
-13 -17 -63 -21 -113 -9 -117 -35 -185 -87 -229 -100 -86 -236 -86 -336 -1
-127 109 -104 321 42 401 42 23 67 28 159 34 148 8 147 7 147 184 0 190 33
174 -365 178 -307 3 -322 4 -360 25 -56 31 -89 64 -116 119 -42 88 -25 205 41
273 75 77 67 75 425 79 l320 3 28 26 c25 25 27 32 27 114 0 135 46 219 145
266 67 32 159 29 230 -7z"/>
<path d="M1667 2706 c-89 -33 -117 -83 -117 -209 0 -85 2 -96 23 -115 19 -18
35 -22 94 -22 86 0 128 13 171 54 72 67 83 148 32 220 -53 73 -128 100 -203
72z m123 -43 c33 -22 47 -41 66 -83 20 -45 5 -96 -40 -138 -29 -28 -37 -30
-133 -35 l-103 -5 0 91 c0 86 2 94 28 122 15 17 38 39 52 48 32 22 99 22 130
0z"/>
<path d="M888 2290 c-76 -5 -92 -9 -129 -35 -112 -79 -104 -222 16 -301 27
-18 52 -19 330 -22 l302 -3 31 26 32 27 0 132 c0 187 17 176 -271 179 -123 1
-263 0 -311 -3z m547 -180 l0 -141 -319 3 c-245 2 -320 6 -324 16 -2 6 -9 12
-15 12 -21 0 -61 73 -61 110 0 20 10 51 25 72 43 67 49 68 389 68 l305 0 0
-140z"/>
<path d="M1567 1842 c-14 -15 -17 -42 -17 -160 l0 -141 27 -21 c27 -21 34 -21
328 -18 296 3 301 3 338 27 120 74 116 238 -8 308 -39 22 -47 23 -346 23 -284
0 -307 -1 -322 -18z m469 -24 l181 -3 29 -30 c65 -67 69 -117 14 -190 -40 -54
-46 -55 -375 -55 l-305 0 0 143 0 142 137 -2 c76 -2 219 -4 319 -5z"/>
<path d="M1204 1404 c-60 -39 -88 -88 -88 -155 -1 -46 4 -62 28 -93 41 -55 82
-76 144 -76 60 0 95 15 133 57 36 39 49 83 49 173 0 67 -3 79 -23 98 -20 19
-35 22 -113 22 -80 0 -95 -3 -130 -26z m227 -94 c-4 -106 -18 -142 -70 -174
-76 -48 -150 -25 -198 61 -14 25 -18 103 -5 103 4 0 12 10 17 22 19 40 61 61
137 69 131 12 124 17 119 -81z"/>
<path d="M320 664 c-19 -9 -44 -20 -55 -24 -18 -7 -69 -29 -87 -38 -5 -2 -12
8 -18 22 -12 33 -28 33 -41 -1 -8 -22 -6 -30 10 -47 l21 -20 72 33 c40 18 82
35 93 38 11 2 30 10 43 16 18 8 28 8 43 -1 16 -10 20 -10 25 2 15 38 -43 48
-106 20z"/>
<path d="M1971 666 c-24 -29 -51 -90 -51 -116 0 -14 -5 -31 -10 -36 -15 -15
-17 -287 -2 -292 7 -2 12 -10 12 -17 0 -15 30 -35 52 -35 8 0 22 14 31 30 19
31 37 40 37 17 0 -20 37 -50 53 -44 8 3 23 24 35 48 l21 42 6 -29 c14 -66 37
-79 60 -34 19 37 39 35 43 -4 2 -19 8 -26 20 -24 23 4 28 39 8 50 -12 7 -16
26 -16 84 0 70 1 75 25 84 31 12 33 27 3 26 -21 -1 -23 3 -19 44 1 25 7 47 12
48 18 7 9 32 -11 32 -25 0 -42 -39 -42 -92 1 -27 -4 -38 -14 -38 -19 0 -18
-16 1 -24 31 -12 1 -166 -32 -166 -12 0 -14 18 -12 95 2 52 -1 98 -5 102 -15
15 -36 -31 -36 -79 0 -64 -26 -118 -58 -118 -23 0 -24 1 -21 95 2 52 0 95 -4
95 -4 0 -14 0 -22 0 -12 0 -15 -14 -15 -69 0 -81 -22 -133 -55 -129 -14 2 -21
12 -23 33 -2 17 -8 35 -13 42 -7 7 -6 19 3 32 10 17 10 25 0 42 -11 17 -11 34
-2 88 7 36 16 74 21 83 5 10 9 30 9 45 0 33 15 61 27 50 10 -11 5 -104 -7
-127 -6 -10 -10 -27 -10 -38 0 -11 -7 -33 -15 -48 -17 -34 -19 -54 -5 -54 6 0
10 6 10 14 0 7 7 19 15 26 8 7 15 22 15 34 0 12 4 26 9 31 14 17 31 149 23
180 -9 34 -33 43 -51 21z"/>
<path d="M1056 618 c-11 -35 -26 -136 -26 -170 0 -35 -2 -38 -28 -38 -32 0
-52 -19 -72 -68 -22 -57 -20 -92 9 -133 24 -35 61 -53 61 -30 0 12 29 41 40
41 5 0 10 -10 12 -22 4 -29 25 -34 33 -7 5 13 2 24 -6 30 -22 13 -10 351 12
365 5 3 9 14 9 25 0 22 -38 27 -44 7z m-25 -230 c3 -46 -4 -125 -12 -132 -5
-6 -9 -18 -9 -28 0 -25 -26 -23 -44 4 -25 35 -20 80 14 126 30 42 49 53 51 30z"/>
<path d="M366 612 c-14 -22 -38 -413 -27 -425 4 -4 15 -5 24 -1 13 4 17 19 17
54 0 27 5 52 10 55 6 3 10 15 10 26 0 10 4 19 9 19 5 0 13 9 16 21 4 11 12 18
18 16 8 -2 11 -29 9 -83 -2 -68 0 -82 18 -103 19 -23 22 -23 37 -8 15 15 15
18 -2 37 -15 17 -17 31 -12 100 6 72 4 81 -13 90 -10 5 -21 10 -23 10 -8 0
-47 -38 -47 -46 -1 -16 -40 -57 -47 -50 -4 4 -3 10 2 14 6 4 12 45 14 92 1 46
7 92 12 102 15 27 11 88 -5 88 -8 0 -17 -4 -20 -8z"/>
<path d="M273 583 c-8 -17 -13 -71 -13 -142 0 -139 -15 -223 -50 -276 -30 -46
-75 -59 -101 -28 -22 25 -38 88 -28 104 5 8 9 23 9 34 1 26 34 65 54 65 18 0
31 24 22 39 -11 17 -76 -29 -103 -73 -21 -32 -26 -54 -26 -100 0 -57 2 -61 38
-93 41 -35 72 -41 107 -21 29 18 77 70 78 86 0 7 4 20 9 30 19 36 31 143 31
270 0 73 -3 132 -7 132 -5 0 -14 -12 -20 -27z"/>
<path d="M2342 514 c-22 -24 -10 -49 23 -49 36 0 46 29 18 50 -23 18 -25 18
-41 -1z"/>
<path d="M1564 468 c-5 -7 -8 -42 -9 -78 0 -36 -4 -73 -9 -82 -6 -14 -4 -18
13 -18 17 0 21 6 21 34 0 43 11 51 33 25 23 -26 21 -56 -2 -64 -11 -3 -23 -15
-26 -26 -4 -10 -11 -19 -16 -19 -16 0 -10 -36 9 -53 49 -44 92 -7 92 79 0 55
-3 62 -36 97 -30 31 -35 42 -31 67 5 23 2 32 -13 40 -13 7 -21 7 -26 -2z m86
-193 c0 -28 -29 -87 -40 -80 -16 10 -12 56 7 77 20 22 33 23 33 3z"/>
<path d="M2803 465 c-16 -18 -17 -55 -2 -55 7 0 9 -13 5 -37 -16 -97 -18 -143
-7 -143 6 0 11 -8 11 -18 0 -24 19 -42 45 -42 48 0 96 95 65 126 -16 16 -3 39
30 51 17 6 30 18 30 27 0 24 -20 19 -52 -10 l-27 -27 -32 34 c-21 23 -32 44
-33 68 -1 38 -14 48 -33 26z m57 -124 c5 -11 10 -29 10 -40 0 -12 5 -21 10
-21 16 0 12 -47 -6 -64 -8 -9 -19 -16 -24 -16 -12 0 -21 28 -11 35 13 7 20 45
9 45 -5 0 -12 -9 -15 -20 -3 -11 -9 -20 -14 -20 -12 0 -11 57 1 65 6 3 10 17
10 31 0 29 15 31 30 5z"/>
<path d="M637 422 c-10 -10 -17 -27 -17 -38 0 -10 -4 -25 -9 -33 -10 -16 8
-56 35 -75 17 -13 17 -15 1 -40 -20 -31 -38 -33 -60 -8 -22 24 -23 111 -2 138
18 24 19 44 1 44 -21 0 -56 -84 -56 -133 0 -36 6 -49 33 -75 39 -38 56 -40 84
-9 35 38 43 63 43 137 0 55 -4 75 -18 91 -18 19 -19 19 -35 1z m33 -88 c0 -32
-4 -44 -15 -44 -11 0 -15 11 -15 43 0 24 3 47 6 50 14 14 24 -6 24 -49z"/>
<path d="M1801 421 c-7 -13 -18 -17 -31 -14 -25 7 -97 -52 -75 -61 11 -4 14
-21 13 -66 -1 -50 2 -64 22 -85 13 -14 32 -25 42 -25 21 0 77 58 78 81 0 8 5
20 12 27 9 9 7 12 -9 12 -44 0 -53 10 -53 57 0 52 23 56 28 5 4 -38 32 -45 32
-9 0 25 -25 83 -40 92 -5 3 -14 -3 -19 -14z m-27 -53 c3 -13 6 -33 6 -46 0
-13 12 -33 26 -45 l25 -22 -24 -23 c-52 -49 -87 19 -63 121 10 42 21 48 30 15z"/>
<path d="M2507 416 c-9 -12 -18 -39 -22 -58 -5 -28 -2 -40 20 -66 30 -36 27
-67 -7 -78 -16 -5 -27 0 -41 17 -24 30 -20 126 6 141 19 10 23 38 6 38 -27 0
-69 -83 -69 -135 0 -37 52 -105 79 -105 24 1 54 30 74 71 19 42 17 143 -4 178
-17 27 -23 26 -42 -3z m43 -87 c0 -27 -4 -39 -14 -39 -17 0 -30 51 -21 80 11
34 35 5 35 -41z"/>
<path d="M733 412 c-7 -5 -12 -46 -12 -121 -1 -99 1 -112 15 -107 8 3 18 6 20
6 2 0 4 20 4 44 0 25 5 48 10 51 6 3 10 13 10 21 0 11 -6 13 -20 9 -16 -5 -20
-2 -20 14 0 12 5 21 10 21 6 0 10 16 10 35 0 35 -5 41 -27 27z"/>
<path d="M818 400 c-26 -20 -44 -60 -27 -60 4 0 13 9 19 20 21 39 30 19 30
-68 0 -75 3 -92 19 -106 11 -10 25 -15 30 -11 15 8 14 42 0 47 -8 3 -11 34
-10 93 2 63 -2 90 -11 96 -19 12 -22 11 -50 -11z"/>
<path d="M1187 413 c-26 -7 -51 -33 -65 -68 -15 -39 -19 -114 -7 -123 6 -4 15
-16 21 -27 16 -28 50 -31 57 -5 3 13 0 23 -9 26 -48 15 -47 12 -40 66 8 58 40
111 65 106 20 -4 22 -85 2 -122 -12 -22 -11 -28 15 -60 16 -20 32 -36 36 -36
3 0 12 14 20 30 7 17 15 30 19 30 6 0 49 -56 49 -64 0 -3 -13 -19 -30 -36 -16
-17 -30 -39 -30 -50 0 -17 43 -60 61 -60 20 0 58 49 64 83 7 38 22 46 43 25 9
-9 15 -9 23 -1 8 8 6 14 -7 22 -47 27 -47 24 -30 92 8 35 17 88 19 117 4 49 3
52 -19 52 -22 0 -24 -4 -24 -58 0 -34 -6 -66 -14 -78 -10 -13 -11 -25 -5 -35
5 -8 9 -26 9 -41 0 -21 -5 -28 -19 -28 -23 0 -36 16 -21 25 16 10 11 26 -7 23
-16 -3 -18 8 -21 95 -2 89 -4 97 -22 97 -18 0 -20 -7 -20 -83 0 -86 -8 -107
-43 -107 -16 0 -18 5 -12 28 4 15 8 43 10 62 1 19 5 42 8 50 13 31 -35 63 -76
53z m204 -265 c2 -22 -2 -42 -14 -71 -15 -35 -43 -32 -40 5 3 45 51 103 54 66z"/>
<path d="M2613 412 c-13 -8 -26 -229 -14 -237 16 -9 39 31 44 75 7 64 11 75
30 94 9 10 17 22 17 27 0 5 7 9 15 9 12 0 13 -15 8 -85 -6 -79 -4 -87 16 -106
18 -17 25 -18 36 -9 8 7 15 21 15 32 0 15 -5 18 -21 13 -22 -7 -22 -9 -3 126
5 34 -13 69 -35 69 -18 0 -65 -56 -77 -92 -8 -24 -24 -23 -24 2 0 11 4 20 8
20 11 0 13 58 3 64 -4 3 -12 2 -18 -2z"/>
<path d="M2337 383 c-4 -3 -7 -22 -7 -41 0 -20 -5 -50 -12 -68 -9 -27 -9 -35
5 -48 8 -9 19 -25 22 -36 8 -24 30 -26 39 -4 10 26 7 34 -15 34 -19 0 -20 4
-15 38 17 95 18 132 4 132 -8 0 -18 -3 -21 -7z"/>
</g>
</svg>
