<?xml version="1.0" standalone="no"?>
<!DOCTYPE svg PUBLIC "-//W3C//DTD SVG 20010904//EN"
 "http://www.w3.org/TR/2001/REC-SVG-20010904/DTD/svg10.dtd">
<svg version="1.0" xmlns="http://www.w3.org/2000/svg"
 width="88.000000pt" height="87.000000pt" viewBox="0 0 88.000000 87.000000"
 preserveAspectRatio="xMidYMid meet">
<metadata>
Created by potrace 1.10, written by Peter Selinger 2001-2011
</metadata>
<g transform="translate(0.000000,87.000000) scale(0.100000,-0.100000)"
fill="#000000" stroke="none">
<path d="M484 790 c-11 -4 -33 -22 -47 -40 -21 -25 -27 -42 -27 -80 l0 -49
-146 -3 -146 -3 -35 -39 c-33 -36 -35 -42 -30 -89 9 -97 76 -126 268 -115 l89
5 0 -58 0 -59 -45 0 c-82 0 -135 -47 -135 -120 0 -70 53 -120 127 -120 69 0
113 52 113 135 l0 45 145 0 c144 0 145 0 175 28 60 52 49 155 -20 195 -23 14
-55 17 -164 17 l-136 0 0 61 0 61 30 -7 c72 -16 150 44 150 117 0 90 -85 151
-166 118z m88 -77 c22 -20 23 -42 2 -71 -12 -17 -25 -22 -60 -22 l-44 0 0 37
c0 64 58 96 102 56z m-115 -119 c8 -20 -8 -36 -26 -25 -15 10 -8 41 9 41 6 0
13 -7 17 -16z m-47 -94 l0 -60 -130 0 c-117 0 -132 2 -150 20 -25 25 -26 52
-2 73 14 13 44 17 137 20 66 1 126 4 133 5 8 1 12 -16 12 -58z m47 -86 c8 -20
-8 -36 -26 -25 -15 10 -8 41 9 41 6 0 13 -7 17 -16z m294 -60 c24 -22 24 -49
-1 -74 -18 -18 -33 -20 -150 -20 l-130 0 0 58 0 57 131 -2 c108 -1 134 -4 150
-19z m-293 -127 c2 -12 -3 -17 -17 -17 -12 0 -21 6 -21 13 0 31 32 34 38 4z
m-48 -67 c0 -45 -27 -80 -60 -80 -25 0 -60 34 -60 59 0 28 47 61 86 61 33 0
34 -1 34 -40z"/>
</g>
</svg>
