<?xml version="1.0" standalone="no"?>
<!DOCTYPE svg PUBLIC "-//W3C//DTD SVG 20010904//EN"
 "http://www.w3.org/TR/2001/REC-SVG-20010904/DTD/svg10.dtd">
<svg version="1.0" xmlns="http://www.w3.org/2000/svg"
 width="1280.000000pt" height="1280.000000pt" viewBox="0 0 1280.000000 1280.000000"
 preserveAspectRatio="xMidYMid meet">
<metadata>
Created by potrace 1.15, written by Peter Selinger 2001-2017
</metadata>
<g transform="translate(0.000000,1280.000000) scale(0.100000,-0.100000)"
fill="#3f51b5" stroke="none">
<path d="M6090 11951 c-668 -42 -1228 -174 -1890 -443 -189 -77 -645 -302
-762 -376 -712 -449 -1299 -1006 -1741 -1649 -426 -621 -722 -1319 -880 -2078
-30 -143 -91 -545 -106 -700 -66 -671 30 -1495 257 -2205 74 -231 237 -631
345 -845 55 -110 218 -388 305 -520 320 -487 762 -974 1217 -1341 227 -182
396 -301 644 -449 90 -54 552 -286 631 -317 36 -14 137 -55 225 -91 348 -141
893 -295 1140 -322 33 -3 107 -13 165 -20 255 -34 372 -40 770 -40 319 0 440
4 570 18 278 31 504 71 823 146 131 32 201 53 482 146 222 74 558 222 805 355
74 40 168 91 208 112 109 59 480 310 622 421 199 156 311 257 525 471 351 352
521 564 800 1001 190 297 368 654 498 1002 172 458 258 810 331 1363 33 248
45 738 26 1045 -19 296 -85 726 -151 980 -120 463 -256 820 -474 1241 -310
600 -772 1206 -1225 1608 -166 147 -394 335 -475 391 -249 174 -416 279 -645
408 -290 163 -805 375 -1150 472 -149 43 -414 104 -540 126 -63 10 -121 21
-128 24 -15 6 -208 29 -412 50 -164 17 -638 26 -810 16z m799 -1221 c510 -58
963 -186 1446 -409 120 -56 125 -58 270 -141 187 -106 348 -211 510 -330 117
-86 406 -342 522 -463 195 -203 419 -492 575 -742 170 -274 414 -807 493
-1075 15 -52 33 -115 41 -140 15 -51 32 -122 69 -290 73 -323 103 -858 71
-1235 -30 -349 -101 -731 -186 -1000 -94 -294 -224 -596 -373 -859 -104 -186
-320 -501 -450 -654 -348 -415 -664 -687 -1152 -994 -535 -336 -1164 -550
-1855 -630 -174 -20 -795 -17 -970 5 -74 9 -175 21 -225 27 -347 41 -937 242
-1382 472 -399 205 -661 394 -1008 728 -544 522 -919 1113 -1166 1840 -94 275
-176 676 -210 1025 -16 161 -16 634 -1 760 84 679 219 1153 472 1655 292 581
692 1074 1205 1485 274 220 437 326 729 474 590 299 1177 465 1806 511 182 13
563 3 769 -20z"/>
<path d="M8863 8882 c-50 -37 -190 -138 -311 -224 -120 -87 -224 -163 -229
-170 -6 -7 -14 -24 -17 -38 -4 -14 -11 -34 -16 -45 -10 -22 -54 -149 -102
-290 l-30 -90 -549 -550 c-302 -303 -549 -555 -549 -561 0 -17 311 -314 329
-314 7 0 633 627 857 859 244 254 218 232 324 265 52 16 163 51 247 78 l151
50 139 202 c197 284 303 445 303 459 1 15 -430 437 -445 436 -5 0 -51 -31
-102 -67z"/>
<path d="M4213 8668 c-28 -14 -36 -34 -21 -61 6 -12 117 -130 247 -262 232
-236 371 -386 404 -435 28 -41 21 -89 -20 -150 -42 -62 -412 -436 -517 -523
-125 -102 -114 -108 -551 323 -210 206 -297 283 -336 295 -26 9 -49 -11 -49
-42 0 -26 33 -203 50 -265 16 -60 28 -107 50 -198 12 -47 36 -141 53 -209 l32
-124 204 -196 c163 -157 211 -198 245 -208 40 -11 218 -54 456 -108 63 -15
125 -31 138 -36 13 -5 33 -9 45 -9 68 -1 79 -11 1292 -1229 660 -661 1203
-1208 1206 -1215 4 -6 14 -42 23 -81 56 -244 76 -329 91 -400 9 -44 21 -88 26
-97 5 -10 9 -29 9 -42 0 -14 4 -35 9 -48 6 -13 12 -40 16 -60 5 -32 29 -58
188 -204 100 -92 196 -181 213 -197 17 -16 47 -32 65 -37 19 -5 61 -16 94 -25
57 -16 72 -20 155 -44 19 -5 80 -21 135 -36 97 -26 133 -36 205 -56 114 -33
136 -32 174 10 17 19 18 24 5 49 -8 15 -127 142 -265 282 -137 140 -273 280
-301 310 -107 117 -124 167 -79 238 56 89 475 510 551 553 115 66 152 43 545
-347 140 -139 267 -262 282 -273 33 -26 50 -26 73 -2 18 21 17 64 -3 146 -6
22 -17 69 -26 105 -8 36 -19 81 -25 100 -5 19 -26 98 -46 175 -20 77 -41 156
-46 175 -6 19 -14 50 -19 69 -7 26 -58 84 -210 236 -197 197 -201 201 -258
213 -132 30 -189 43 -222 52 -35 9 -65 16 -195 45 -101 23 -155 35 -195 45
-19 5 -48 12 -65 15 -23 5 -318 295 -1237 1212 -664 664 -1211 1218 -1216
1232 -6 14 -18 62 -27 106 -10 44 -24 103 -31 130 -18 70 -20 76 -49 200 -31
132 -41 172 -68 249 -22 63 -88 158 -140 202 -18 15 -85 77 -151 138 -143 134
-135 129 -216 150 -36 10 -94 26 -130 36 -214 64 -507 140 -530 139 -8 0 -25
-5 -37 -11z"/>
<path d="M6231 7199 l-94 -91 714 -714 c393 -393 719 -714 724 -714 6 0 53 43
105 95 l95 96 -210 207 c-883 870 -1228 1207 -1233 1209 -4 1 -49 -38 -101
-88z"/>
<path d="M4373 5148 c-698 -700 -783 -789 -876 -913 -71 -94 -100 -157 -122
-257 -9 -40 -20 -92 -25 -116 -19 -84 -13 -150 27 -277 14 -45 50 -122 63
-135 3 -3 31 -39 63 -81 64 -85 249 -269 342 -340 136 -103 249 -142 420 -143
207 -1 361 62 540 221 61 53 415 401 788 772 l678 675 -118 118 c-65 65 -121
117 -125 116 -3 -2 -116 -111 -250 -243 -244 -241 -354 -342 -395 -364 -12 -6
-46 -11 -77 -11 -62 0 -99 24 -142 91 -29 47 -30 76 -4 132 30 62 95 135 368
410 l246 247 -124 125 c-69 69 -128 124 -131 123 -3 -2 -114 -105 -245 -229
-301 -286 -367 -343 -428 -374 -62 -31 -73 -31 -122 1 -88 57 -111 157 -56
245 16 24 154 172 308 328 153 156 280 286 282 290 1 3 -51 59 -116 124 l-118
117 -651 -652z"/>
</g>
</svg>
