<?xml version="1.0" standalone="no"?>
<!DOCTYPE svg PUBLIC "-//W3C//DTD SVG 20010904//EN"
 "http://www.w3.org/TR/2001/REC-SVG-20010904/DTD/svg10.dtd">
<svg version="1.0" xmlns="http://www.w3.org/2000/svg"
 width="724.000000pt" height="1280.000000pt" viewBox="0 0 724.000000 1280.000000"
 preserveAspectRatio="xMidYMid meet">
<metadata>
Created by potrace 1.15, written by Peter Selinger 2001-2017
</metadata>
<g transform="translate(0.000000,1280.000000) scale(0.100000,-0.100000)"
fill="#3f51b5" stroke="none">
<path d="M3166 12614 c-3 -9 -6 -44 -6 -79 0 -58 -2 -64 -22 -67 -22 -3 -25
-16 -62 -240 l-40 -238 -333 0 c-315 0 -335 -1 -390 -21 -110 -41 -179 -103
-231 -209 l-27 -55 -5 -695 -5 -695 -185 -13 c-102 -6 -213 -15 -247 -18 l-63
-6 0 -73 c0 -81 -11 -122 -36 -132 -32 -12 -36 12 -15 88 28 105 40 176 52
317 14 173 0 303 -43 394 -18 37 -39 70 -48 73 -44 12 -347 36 -495 38 -204 2
-240 -7 -308 -83 -148 -165 -318 -709 -386 -1240 -80 -618 -44 -1271 103
-1875 134 -549 286 -815 465 -815 40 0 61 -13 41 -25 -8 -5 -7 -11 1 -21 9
-11 9 -17 0 -28 -9 -10 -9 -16 -1 -21 6 -4 7 -12 2 -18 -10 -14 -10 -483 1
-493 4 -4 2 -14 -5 -21 -9 -11 -9 -16 2 -23 12 -7 12 -11 0 -25 -12 -14 -12
-18 0 -25 11 -7 11 -11 1 -23 -7 -9 -8 -18 -3 -21 6 -3 9 -38 8 -78 -2 -40 2
-79 7 -86 8 -10 7 -16 -4 -23 -10 -6 -11 -11 -2 -17 6 -4 10 -26 9 -52 -2 -25
1 -51 7 -57 6 -9 5 -18 -3 -28 -8 -10 -9 -15 -2 -15 7 0 10 -18 8 -50 -2 -27
0 -50 5 -50 4 0 7 -23 5 -50 -2 -28 0 -52 4 -55 5 -3 7 -25 5 -50 -1 -25 1
-47 5 -50 5 -3 7 -25 5 -50 -1 -25 2 -48 7 -51 5 -3 7 -13 4 -21 -4 -9 -1 -22
5 -29 9 -11 8 -18 -1 -29 -10 -12 -10 -15 0 -15 8 0 10 -8 6 -24 -3 -14 -1
-28 5 -31 6 -4 8 -14 5 -22 -4 -9 -1 -22 5 -29 9 -11 8 -18 -1 -29 -10 -12
-10 -15 0 -15 8 0 10 -8 6 -25 -4 -16 -2 -25 5 -25 7 0 9 -9 5 -24 -3 -14 -1
-28 4 -31 6 -4 8 -15 5 -25 -3 -10 -2 -21 3 -24 6 -3 9 -26 8 -51 -1 -25 3
-45 7 -45 5 0 6 -11 3 -25 -4 -16 -2 -25 5 -25 7 0 9 -9 5 -25 -4 -16 -2 -25
5 -25 7 0 9 -9 5 -25 -4 -16 -2 -25 5 -25 7 0 9 -9 5 -25 -4 -16 -2 -25 5 -25
7 0 9 -9 5 -25 -4 -16 -2 -25 5 -25 7 0 9 -9 5 -25 -4 -16 -2 -25 5 -25 7 0 9
-9 5 -25 -4 -16 -2 -25 5 -25 7 0 9 -9 5 -25 -4 -16 -2 -25 5 -25 6 0 9 -9 6
-20 -3 -11 -1 -23 5 -26 5 -3 8 -15 5 -25 -3 -10 -1 -22 5 -25 5 -3 8 -15 5
-25 -3 -10 -1 -22 5 -25 5 -3 8 -15 5 -25 -3 -10 -2 -21 3 -24 8 -5 24 -64 21
-79 -1 -4 3 -14 9 -21 6 -7 8 -20 4 -29 -4 -9 -1 -16 6 -16 8 0 10 -9 6 -24
-3 -14 -1 -26 5 -28 17 -6 -3 -83 -21 -83 -8 -1 -14 -7 -12 -14 1 -7 -7 -15
-18 -18 -11 -3 -20 -11 -20 -19 0 -7 -6 -17 -13 -21 -8 -4 -16 -16 -20 -25 -3
-10 -13 -18 -22 -18 -8 0 -15 -7 -15 -15 0 -9 -7 -18 -15 -21 -8 -4 -15 -12
-15 -20 0 -8 -7 -14 -15 -14 -8 0 -15 -7 -15 -15 0 -8 -9 -19 -20 -25 -11 -6
-18 -16 -14 -21 3 -6 -3 -13 -15 -16 -12 -3 -21 -13 -21 -24 0 -11 -7 -19 -15
-19 -8 0 -15 -7 -15 -15 0 -9 -7 -18 -15 -21 -8 -4 -15 -13 -15 -20 0 -8 -7
-17 -15 -20 -8 -4 -15 -12 -15 -20 0 -7 -6 -17 -13 -21 -8 -4 -16 -16 -20 -25
-3 -10 -14 -18 -23 -18 -11 0 -14 -5 -10 -16 4 -10 0 -18 -13 -21 -12 -3 -17
-11 -14 -20 4 -9 -2 -16 -16 -20 -13 -3 -20 -11 -17 -19 3 -8 -4 -18 -15 -24
-11 -6 -17 -15 -14 -20 3 -5 -3 -14 -14 -20 -12 -6 -18 -16 -15 -25 4 -9 0
-15 -10 -15 -9 0 -16 -8 -16 -20 0 -11 -5 -20 -10 -20 -6 0 -15 -11 -20 -25
-5 -14 -14 -25 -20 -25 -5 0 -10 -9 -10 -20 0 -12 -7 -20 -16 -20 -10 0 -14
-6 -10 -15 3 -9 -3 -19 -14 -25 -11 -6 -17 -16 -14 -25 4 -8 -1 -18 -10 -21
-9 -3 -16 -15 -16 -25 0 -11 -7 -19 -16 -19 -10 0 -14 -5 -10 -15 3 -9 -1 -18
-9 -21 -8 -4 -15 -15 -15 -25 0 -11 -7 -22 -16 -26 -8 -3 -13 -12 -10 -20 3
-7 -1 -16 -9 -19 -8 -4 -15 -15 -15 -25 0 -11 -6 -22 -14 -25 -8 -3 -12 -12
-9 -20 3 -7 -2 -17 -12 -20 -9 -4 -14 -13 -11 -20 3 -7 -1 -20 -9 -28 -8 -8
-15 -22 -15 -30 0 -9 -4 -16 -10 -16 -5 0 -10 -11 -10 -25 0 -14 -4 -25 -10
-25 -5 0 -10 -9 -10 -20 0 -11 -6 -23 -14 -26 -8 -3 -12 -13 -9 -23 3 -11 -2
-21 -12 -25 -9 -3 -14 -10 -10 -16 3 -5 2 -17 -3 -27 -6 -10 -15 -31 -22 -48
-7 -16 -16 -38 -22 -48 -5 -10 -6 -22 -3 -26 2 -5 -1 -14 -9 -20 -8 -7 -12
-21 -9 -31 3 -11 0 -20 -6 -20 -6 0 -11 -11 -11 -25 0 -14 -5 -25 -11 -25 -6
0 -8 -8 -4 -19 3 -11 1 -22 -5 -26 -6 -4 -9 -13 -6 -21 3 -7 -1 -20 -9 -27 -8
-8 -11 -24 -8 -36 3 -13 1 -21 -7 -21 -7 0 -9 -8 -5 -19 3 -11 1 -22 -5 -26
-6 -4 -8 -15 -5 -25 3 -10 1 -21 -5 -25 -6 -4 -8 -15 -5 -25 3 -10 1 -21 -5
-25 -6 -4 -8 -15 -5 -25 3 -10 1 -21 -5 -25 -5 -3 -7 -17 -4 -31 3 -13 2 -24
-4 -24 -6 0 -8 -21 -6 -50 2 -27 -1 -50 -5 -50 -5 0 -7 -22 -5 -50 2 -27 -1
-52 -7 -56 -6 -4 -6 -11 2 -20 8 -10 8 -18 0 -27 -7 -10 -7 -17 0 -24 6 -6 8
-17 4 -23 -11 -18 -13 -80 -3 -86 5 -3 3 -12 -3 -21 -9 -10 -10 -16 -2 -21 6
-4 10 -27 9 -52 -2 -25 1 -51 7 -57 6 -9 5 -18 -3 -28 -10 -12 -10 -15 0 -15
8 0 10 -8 6 -24 -3 -14 -1 -28 4 -31 6 -4 8 -15 5 -25 -3 -10 -1 -21 5 -25 5
-3 7 -17 4 -30 -3 -12 -1 -26 4 -29 6 -3 8 -15 5 -26 -3 -11 0 -20 6 -20 7 0
9 -9 5 -25 -4 -16 -2 -25 6 -25 7 0 10 -7 6 -16 -4 -9 -1 -23 5 -30 6 -8 9
-20 6 -28 -3 -8 1 -20 8 -26 8 -7 12 -16 10 -21 -3 -4 -1 -17 5 -29 5 -11 14
-29 20 -40 5 -10 7 -26 4 -33 -3 -8 2 -17 11 -21 11 -4 14 -13 10 -25 -3 -12
0 -21 11 -25 9 -4 14 -12 10 -21 -3 -9 1 -18 10 -22 9 -3 14 -13 11 -24 -3
-10 1 -20 9 -23 8 -3 14 -14 14 -25 0 -10 7 -22 16 -25 9 -3 14 -13 11 -20 -3
-8 1 -17 9 -20 8 -3 14 -14 14 -25 0 -10 7 -21 15 -25 8 -3 15 -12 15 -20 0
-7 7 -17 16 -20 9 -3 14 -12 11 -19 -3 -8 4 -19 14 -26 11 -6 17 -16 14 -21
-3 -5 4 -14 15 -20 11 -6 20 -17 20 -24 0 -8 7 -16 15 -20 8 -3 15 -12 15 -21
0 -8 7 -15 15 -15 8 0 15 -9 15 -20 0 -12 7 -20 16 -20 9 0 18 -9 21 -20 3
-11 10 -17 15 -14 5 3 12 -3 15 -15 3 -12 12 -21 20 -21 8 0 17 -9 20 -20 3
-11 12 -20 19 -20 8 0 17 -7 20 -15 4 -8 13 -15 21 -15 8 0 17 -9 20 -21 4
-12 11 -18 20 -15 9 4 17 -1 20 -14 3 -11 14 -20 24 -20 11 0 19 -7 19 -16 0
-11 5 -14 16 -10 11 4 18 -1 21 -15 3 -12 11 -18 19 -15 8 3 19 -3 26 -13 6
-11 17 -17 25 -14 7 3 16 -2 19 -11 3 -9 15 -16 25 -16 11 0 22 -7 25 -15 4
-10 13 -13 25 -10 12 4 21 1 25 -10 4 -10 13 -13 24 -10 10 3 21 1 25 -5 3 -5
17 -10 31 -10 13 0 24 -5 24 -10 0 -6 11 -8 25 -4 16 4 25 2 25 -5 0 -7 9 -9
24 -5 13 3 27 1 31 -6 5 -8 10 -8 21 1 9 7 19 8 27 2 15 -11 67 -11 85 1 7 4
19 3 27 -4 10 -8 15 -8 20 0 4 7 18 9 31 6 15 -4 24 -2 24 5 0 7 9 9 25 5 14
-4 25 -2 25 4 0 5 11 10 24 10 14 0 28 5 31 11 4 6 14 8 22 5 8 -3 21 1 29 9
8 8 21 12 28 9 7 -3 16 2 20 11 4 11 13 14 25 10 12 -3 21 0 25 10 3 8 14 15
25 15 10 0 22 7 25 16 3 8 10 12 16 9 6 -3 13 1 16 9 3 9 14 16 23 16 9 0 22
9 29 20 7 12 17 18 23 14 6 -3 13 3 16 15 3 12 13 21 23 21 10 0 20 9 23 20 3
11 11 19 19 18 7 -2 12 3 10 10 -1 8 7 16 18 19 11 3 20 13 20 23 0 10 9 20
21 23 12 3 18 10 15 16 -4 5 3 15 14 21 11 6 18 15 15 20 -3 5 4 15 16 24 12
8 18 19 15 25 -4 5 3 15 14 21 11 6 18 15 15 19 -2 5 2 14 10 21 8 7 15 20 15
30 0 10 7 20 15 24 8 3 12 12 9 21 -4 9 1 17 11 21 9 4 14 13 11 20 -3 7 2 20
10 29 8 8 13 19 10 24 -3 5 0 14 8 20 8 7 12 20 9 30 -3 11 2 21 10 24 10 4
13 13 10 25 -2 11 0 23 5 26 6 3 8 15 5 26 -3 12 0 20 7 20 8 0 10 9 6 25 -4
14 -2 25 4 25 5 0 10 10 10 23 0 37 5 71 11 82 3 6 5 29 4 53 -2 23 0 44 4 46
8 5 7 219 -2 232 -3 5 -4 31 -2 57 1 27 -2 47 -7 47 -6 0 -7 11 -4 24 3 14 3
27 -2 30 -4 2 -7 25 -7 50 0 25 -4 46 -9 46 -4 0 -6 11 -4 25 3 14 1 25 -3 25
-5 0 -9 11 -9 24 0 14 -5 28 -10 31 -6 4 -8 15 -5 25 3 10 1 21 -5 25 -6 4 -8
15 -5 26 4 11 2 19 -5 19 -8 0 -10 9 -6 24 4 16 1 26 -10 30 -10 4 -13 13 -9
26 4 12 2 20 -5 20 -7 0 -10 8 -7 20 3 10 -1 24 -8 30 -7 6 -11 20 -8 30 3 11
0 20 -6 20 -6 0 -11 9 -11 19 0 11 -5 23 -10 26 -6 4 -8 15 -5 25 3 11 0 20
-10 24 -11 4 -14 13 -10 25 3 12 0 21 -11 25 -9 3 -14 13 -11 20 3 8 0 20 -8
26 -8 6 -11 18 -8 26 3 8 0 14 -6 14 -6 0 -11 11 -11 25 0 14 -4 25 -10 25 -5
0 -10 11 -10 25 0 14 -4 25 -10 25 -5 0 -10 9 -10 19 0 11 -5 23 -10 26 -6 3
-10 15 -10 26 0 10 -4 19 -10 19 -5 0 -10 11 -10 25 0 14 -4 25 -10 25 -5 0
-10 9 -10 20 0 11 -4 20 -10 20 -5 0 -10 11 -10 25 0 14 -4 25 -10 25 -5 0
-10 9 -10 19 0 11 -5 23 -10 26 -6 3 -10 15 -10 26 0 10 -4 19 -10 19 -5 0
-10 9 -10 19 0 11 -4 23 -10 26 -5 3 -10 15 -10 26 0 10 -4 19 -10 19 -5 0
-10 11 -10 25 0 14 -4 25 -10 25 -5 0 -10 9 -10 20 0 11 -4 20 -10 20 -5 0
-10 11 -10 25 0 14 -4 25 -10 25 -5 0 -10 9 -10 19 0 11 -4 23 -10 26 -5 3
-10 15 -10 26 0 10 -5 19 -11 19 -6 0 -9 9 -6 20 3 12 -1 23 -10 29 -9 5 -13
15 -10 24 3 9 -1 18 -9 21 -10 4 -13 13 -9 25 3 12 0 21 -10 24 -8 4 -12 12
-9 20 3 8 -2 19 -10 26 -8 7 -12 19 -9 27 3 8 0 14 -6 14 -6 0 -11 11 -11 25
0 14 -5 25 -11 25 -7 0 -9 9 -6 21 3 12 0 22 -9 26 -9 3 -12 13 -9 24 4 11 2
19 -4 19 -6 0 -11 11 -11 25 0 14 -5 25 -11 25 -6 0 -9 9 -6 20 3 10 -1 24 -9
31 -8 6 -11 15 -9 20 3 4 1 17 -5 29 -5 11 -15 29 -20 40 -6 12 -8 25 -5 29 2
5 -2 14 -10 21 -8 7 -12 16 -9 22 3 5 0 15 -6 23 -7 8 -10 20 -8 27 3 7 -1 19
-8 26 -7 7 -11 19 -8 27 4 8 1 15 -6 15 -7 0 -10 8 -7 20 3 10 -1 24 -9 31 -8
6 -11 15 -8 21 3 5 0 15 -6 23 -7 8 -10 22 -6 30 3 8 1 15 -4 15 -6 0 -10 11
-10 24 0 14 -5 28 -10 31 -6 4 -8 15 -5 26 4 11 2 19 -5 19 -7 0 -10 8 -7 20
3 10 -1 24 -9 31 -8 6 -11 15 -8 21 3 5 1 14 -4 21 -14 17 -3 77 14 77 8 0 14
7 14 16 0 9 9 18 20 21 11 3 20 10 20 17 0 13 44 56 58 56 5 0 12 9 15 21 3
12 10 18 16 14 6 -3 11 1 11 10 0 9 9 19 19 22 11 3 21 14 24 24 3 11 11 18
19 17 7 -2 12 3 10 10 -1 7 6 15 15 19 10 4 22 12 26 20 4 7 14 13 21 13 8 0
16 9 19 21 3 12 10 18 17 14 7 -4 14 2 17 14 3 12 11 21 18 21 7 0 15 7 19 15
3 8 12 15 21 15 8 0 15 7 15 15 0 8 7 15 15 15 8 0 19 9 25 20 6 11 16 18 21
14 6 -3 13 3 16 15 3 12 11 21 18 21 7 0 15 7 19 15 3 8 12 15 20 15 7 0 16 7
20 15 3 8 12 15 21 15 8 0 15 7 15 15 0 8 9 15 20 15 11 0 20 7 20 15 0 8 8
15 19 15 11 0 21 9 25 22 3 15 9 19 15 13 6 -6 11 -126 13 -290 l3 -280 29
-60 c38 -77 114 -153 191 -191 l60 -29 1850 0 1850 0 67 33 c78 38 149 110
187 192 l26 55 5 1123 c4 992 3 1125 -10 1132 -13 8 -13 9 0 14 13 6 14 303
10 2624 l-5 2617 -27 55 c-36 72 -86 130 -146 169 -100 64 -42 61 -1209 61
l-1061 0 -6 28 c-3 15 -19 113 -36 217 -40 247 -37 235 -60 235 -18 0 -20 7
-20 54 0 30 -4 66 -10 80 l-10 26 -279 0 c-245 0 -280 -2 -285 -16z m-1118
-4349 c-3 -1588 -1 -1796 12 -1801 11 -5 12 -8 3 -11 -10 -4 -13 -81 -13 -343
l0 -338 -60 -38 c-57 -37 -60 -41 -60 -80 0 -37 -4 -42 -37 -60 -28 -14 -39
-27 -41 -47 -4 -29 -5 -30 -38 -21 -14 4 -24 16 -28 34 -4 24 -12 30 -42 36
-49 9 -207 -5 -216 -19 -4 -7 -8 -65 -8 -129 l0 -118 119 0 c127 0 151 8 151
51 0 14 7 19 30 19 27 0 30 -3 30 -33 0 -28 6 -36 38 -53 32 -17 38 -26 42
-61 4 -37 11 -46 60 -80 l55 -39 3 -94 c4 -122 -3 -160 -28 -160 -11 0 -20 -7
-20 -15 0 -8 -8 -15 -19 -15 -10 0 -21 -9 -24 -20 -3 -13 -11 -18 -20 -14 -9
3 -16 -3 -20 -16 -3 -12 -10 -19 -16 -16 -5 4 -15 -3 -21 -14 -6 -11 -17 -20
-24 -20 -8 0 -16 -7 -20 -15 -3 -8 -12 -15 -21 -15 -8 0 -15 -7 -15 -15 0 -8
-8 -15 -19 -15 -11 0 -21 -9 -24 -21 -3 -12 -10 -18 -17 -14 -7 4 -14 -2 -17
-15 -3 -12 -11 -19 -18 -16 -7 2 -15 -4 -18 -15 -3 -10 -12 -19 -21 -19 -9 0
-16 -7 -16 -15 0 -8 -8 -15 -19 -15 -10 0 -21 -9 -24 -20 -3 -11 -12 -20 -21
-20 -9 0 -16 -7 -16 -15 0 -8 -6 -15 -14 -15 -7 0 -16 -9 -19 -20 -3 -11 -12
-20 -21 -20 -9 0 -16 -7 -16 -15 0 -8 -8 -15 -19 -15 -10 0 -21 -9 -24 -20 -3
-11 -11 -19 -19 -18 -7 2 -12 -3 -10 -10 1 -8 -6 -16 -17 -19 -10 -3 -21 -13
-24 -24 -3 -10 -12 -19 -21 -19 -9 0 -16 -7 -16 -15 0 -8 -7 -15 -15 -15 -8 0
-15 -6 -15 -14 0 -20 -16 -29 -41 -21 -14 5 -19 13 -16 26 3 10 1 22 -5 25 -5
3 -8 15 -5 25 3 10 2 21 -3 24 -8 5 -24 64 -21 79 1 4 -3 14 -9 21 -6 7 -8 19
-4 28 3 8 0 18 -6 22 -6 4 -8 15 -5 26 4 11 2 19 -5 19 -8 0 -10 9 -6 25 4 16
2 25 -5 25 -6 0 -9 9 -6 20 3 11 1 23 -4 26 -6 3 -7 14 -4 24 3 10 1 21 -5 25
-6 4 -8 15 -5 25 3 10 1 21 -5 25 -6 4 -8 15 -5 25 3 10 1 21 -5 25 -6 4 -8
15 -5 25 3 10 1 21 -5 25 -6 4 -8 15 -5 25 3 10 1 21 -5 25 -6 4 -9 14 -6 22
3 8 3 20 -1 26 -4 6 -8 27 -9 47 -1 19 -5 43 -9 53 -4 10 -5 21 -1 24 3 3 1
12 -5 19 -6 8 -9 20 -6 29 4 8 2 17 -4 21 -5 3 -7 15 -4 25 4 11 2 26 -5 34
-8 9 -8 15 0 20 8 5 8 11 -1 21 -6 7 -9 20 -6 29 4 8 2 17 -4 21 -5 3 -7 14
-4 24 3 10 2 21 -3 24 -6 3 -8 26 -7 51 2 25 0 47 -5 50 -4 3 -7 25 -6 50 1
25 -3 45 -7 45 -5 0 -6 11 -3 24 3 14 2 27 -2 30 -4 3 -7 25 -7 51 1 25 -2 48
-7 51 -4 3 -3 14 2 25 7 12 7 19 1 19 -6 0 -9 21 -7 50 2 28 0 50 -5 50 -4 0
-7 23 -5 50 2 28 0 53 -6 56 -5 3 -5 11 2 19 7 8 7 15 1 19 -5 3 -8 40 -7 81
2 41 0 75 -4 75 -4 0 -6 44 -5 98 1 53 -2 102 -7 109 -5 7 -5 14 2 18 8 5 8
11 -1 21 -9 11 -9 18 -1 26 9 9 9 15 0 25 -8 10 -8 17 0 25 8 8 9 15 1 25 -8
9 -8 17 0 26 6 8 8 17 4 21 -11 10 -11 76 -1 82 5 3 4 12 -3 20 -9 11 -9 18
-1 26 9 9 9 15 0 25 -8 10 -8 17 0 25 9 9 9 15 0 25 -8 10 -8 17 0 25 9 9 9
15 0 25 -8 10 -8 17 0 25 8 8 9 15 1 25 -7 8 -8 18 -2 26 5 6 8 34 7 60 -2 43
1 49 23 58 13 5 57 9 98 9 70 0 319 24 377 36 36 7 41 17 50 94 19 157 21 373
4 490 -31 210 -69 322 -138 394 l-43 46 -90 0 c-177 0 -270 27 -350 101 -102
94 -151 256 -176 582 -13 168 -7 546 11 692 42 347 142 484 375 515 73 9 84 8
122 -10 60 -28 176 -41 234 -24 53 16 115 73 124 114 6 26 12 29 58 35 47 6
253 20 350 24 l37 1 -2 -1795z m-424 -2797 c8 -14 6 -22 -10 -39 -18 -17 -25
-19 -43 -10 -11 7 -21 20 -21 29 0 41 52 55 74 20z m-397 -1462 c-3 -8 1 -20
8 -26 8 -7 12 -16 9 -22 -3 -5 -1 -15 5 -22 6 -7 9 -21 5 -30 -3 -9 -1 -16 5
-16 6 0 11 -11 11 -24 0 -14 5 -28 10 -31 6 -4 8 -15 5 -26 -4 -11 -2 -19 5
-19 8 0 10 -8 7 -21 -3 -12 0 -22 9 -26 8 -3 13 -12 10 -20 -3 -7 -1 -24 6
-36 25 -49 27 -57 22 -72 -3 -8 -1 -15 5 -15 6 0 11 -11 11 -24 0 -14 5 -28
11 -31 6 -4 8 -13 5 -20 -3 -8 2 -19 9 -25 8 -7 12 -16 10 -21 -3 -4 -1 -17 5
-29 5 -11 14 -29 20 -40 5 -10 7 -26 4 -33 -3 -8 2 -17 10 -20 9 -4 12 -14 9
-26 -3 -12 -1 -21 6 -21 6 0 11 -9 11 -19 0 -11 5 -23 10 -26 6 -4 8 -15 5
-25 -3 -11 0 -20 10 -24 11 -4 14 -13 10 -25 -3 -12 0 -21 10 -25 9 -3 14 -10
10 -16 -3 -5 -1 -18 5 -30 5 -11 15 -29 20 -40 6 -11 10 -27 10 -35 0 -8 5
-15 11 -15 7 0 9 -9 6 -21 -3 -12 0 -22 9 -26 9 -3 12 -13 9 -23 -3 -11 1 -20
10 -24 11 -4 14 -13 10 -25 -3 -12 0 -21 11 -25 9 -3 14 -13 11 -20 -3 -8 0
-20 8 -26 8 -6 12 -17 9 -24 -3 -8 2 -16 11 -20 11 -4 14 -13 10 -25 -3 -12 0
-21 10 -24 8 -4 12 -12 9 -20 -3 -8 2 -19 10 -26 8 -7 13 -18 10 -25 -3 -8 2
-16 11 -20 10 -3 15 -13 12 -20 -3 -8 0 -20 8 -26 8 -6 12 -17 9 -24 -3 -8 2
-16 11 -20 10 -3 15 -13 12 -20 -3 -8 1 -20 9 -27 8 -7 13 -18 10 -26 -3 -8 1
-16 9 -20 10 -3 13 -12 10 -23 -3 -11 1 -20 11 -24 9 -4 14 -12 10 -21 -3 -9
1 -18 9 -22 10 -3 13 -12 10 -23 -3 -11 1 -20 11 -24 9 -3 14 -13 11 -20 -3
-8 1 -20 8 -26 8 -7 12 -16 9 -21 -3 -5 2 -16 10 -24 8 -9 13 -22 10 -29 -3
-7 2 -16 11 -20 9 -3 14 -10 10 -16 -3 -5 -2 -17 3 -27 6 -10 15 -31 22 -48 7
-16 16 -38 22 -48 5 -10 6 -22 3 -26 -2 -5 2 -14 10 -21 7 -6 11 -18 8 -26 -3
-8 0 -14 7 -14 7 0 10 -8 7 -20 -3 -10 1 -24 9 -31 8 -6 11 -15 9 -20 -3 -4
-1 -17 5 -29 5 -11 14 -29 20 -40 5 -10 7 -26 4 -35 -4 -8 -1 -15 6 -15 7 0
10 -8 7 -20 -3 -11 -1 -23 5 -26 5 -3 8 -15 5 -25 -3 -10 -1 -22 5 -25 5 -3 8
-15 5 -25 -3 -10 -1 -19 4 -21 5 -2 10 -21 13 -43 2 -22 7 -47 10 -56 4 -9 6
-20 5 -25 -1 -5 1 -17 6 -27 4 -10 5 -21 2 -24 -4 -3 -2 -14 3 -24 7 -12 7
-20 0 -24 -7 -4 -8 -11 -2 -18 6 -7 9 -31 7 -55 -1 -23 2 -45 7 -48 5 -3 4
-12 -3 -21 -10 -12 -10 -16 2 -23 11 -7 11 -12 2 -21 -9 -9 -9 -16 -2 -25 6
-7 7 -18 3 -25 -4 -6 -8 -40 -8 -75 -1 -35 -5 -66 -9 -70 -3 -4 -4 -18 -1 -30
4 -15 2 -24 -5 -24 -7 0 -9 -9 -5 -25 3 -14 2 -25 -4 -25 -6 0 -8 -8 -5 -19 3
-10 0 -22 -5 -25 -6 -3 -8 -15 -5 -26 3 -12 0 -20 -7 -20 -7 0 -9 -8 -5 -20 4
-13 1 -22 -8 -26 -9 -3 -13 -13 -10 -25 3 -11 0 -19 -7 -19 -7 0 -10 -7 -6
-15 3 -8 -2 -21 -10 -30 -8 -8 -12 -19 -9 -25 3 -6 -1 -13 -10 -16 -9 -4 -14
-13 -11 -20 3 -7 1 -16 -4 -19 -6 -4 -19 -26 -30 -51 -11 -24 -25 -44 -30 -44
-6 0 -10 -9 -10 -20 0 -11 -4 -20 -10 -20 -5 0 -10 -6 -10 -13 0 -7 -13 -24
-28 -37 -15 -14 -31 -33 -35 -42 -3 -10 -14 -18 -22 -18 -9 0 -13 -5 -10 -11
4 -6 -2 -13 -14 -16 -12 -3 -21 -12 -21 -19 0 -8 -7 -14 -15 -14 -9 0 -18 -7
-21 -15 -4 -8 -12 -15 -20 -15 -8 0 -14 -7 -14 -15 0 -8 -9 -15 -19 -15 -10 0
-21 -7 -25 -15 -3 -8 -12 -15 -21 -15 -8 0 -15 -4 -15 -10 0 -5 -9 -10 -19
-10 -10 0 -21 -7 -25 -15 -3 -8 -11 -12 -19 -9 -8 3 -19 -2 -26 -10 -7 -8 -19
-12 -27 -9 -8 3 -14 0 -14 -7 0 -7 -8 -10 -19 -7 -12 3 -22 -1 -25 -10 -4 -9
-13 -12 -26 -8 -12 4 -20 2 -20 -5 0 -7 -8 -9 -19 -5 -11 3 -22 2 -25 -3 -3
-5 -22 -8 -43 -8 -21 1 -46 -2 -55 -6 -10 -5 -20 -4 -23 2 -5 8 -11 8 -20 0
-8 -7 -16 -7 -19 -2 -3 5 -26 8 -51 7 -26 -2 -45 1 -45 7 0 6 -7 7 -16 4 -9
-4 -23 -1 -30 5 -7 6 -17 8 -22 5 -6 -3 -15 1 -22 9 -6 7 -17 12 -25 9 -7 -3
-16 -1 -20 5 -3 6 -15 11 -26 11 -10 0 -19 5 -19 10 0 6 -9 10 -20 10 -11 0
-20 5 -20 10 0 6 -9 10 -20 10 -12 0 -20 7 -20 16 0 10 -6 14 -15 10 -9 -3
-19 3 -25 15 -6 11 -15 17 -21 14 -5 -4 -12 1 -15 9 -3 9 -13 16 -20 16 -8 0
-17 7 -20 15 -4 8 -13 15 -20 15 -8 0 -17 6 -20 14 -3 8 -14 16 -25 19 -11 3
-18 11 -17 19 2 7 -3 12 -10 10 -8 -1 -16 7 -19 18 -3 11 -10 20 -17 20 -14 0
-56 44 -56 59 0 6 -7 11 -15 11 -8 0 -15 6 -15 14 0 8 -7 16 -15 20 -8 3 -15
12 -15 21 0 8 -7 15 -15 15 -8 0 -15 9 -15 20 0 11 -7 20 -15 20 -8 0 -15 9
-15 20 0 11 -7 20 -15 20 -8 0 -15 9 -15 19 0 10 -7 22 -16 25 -8 3 -12 10 -9
16 3 6 -1 13 -9 16 -9 3 -16 14 -16 24 0 10 -7 21 -16 24 -9 3 -14 13 -11 20
3 8 -1 17 -9 20 -8 3 -14 15 -14 26 0 11 -4 20 -10 20 -5 0 -10 9 -10 20 0 11
-4 20 -10 20 -5 0 -10 9 -10 19 0 11 -4 23 -10 26 -5 3 -10 15 -10 26 0 10 -5
19 -11 19 -6 0 -9 9 -6 20 3 10 -1 24 -8 30 -8 6 -11 18 -8 26 3 8 0 14 -6 14
-6 0 -11 11 -11 24 0 14 -5 28 -10 31 -6 4 -8 11 -4 16 3 5 1 16 -5 23 -6 7
-9 21 -5 30 4 9 1 16 -6 16 -8 0 -10 9 -6 25 4 16 2 25 -5 25 -6 0 -9 9 -6 20
3 11 1 23 -5 26 -5 3 -8 15 -5 25 3 10 1 22 -4 25 -6 3 -7 14 -4 24 3 10 1 21
-4 24 -5 4 -8 26 -6 51 1 25 -1 47 -5 50 -4 3 -7 36 -5 75 1 39 -2 73 -7 76
-5 3 -4 12 2 19 8 9 8 15 0 20 -6 3 -7 11 -4 17 4 6 7 42 8 82 1 39 5 76 9 83
4 6 3 15 -3 18 -8 5 -8 11 0 20 7 8 9 19 5 25 -4 6 -3 19 1 28 4 9 7 33 8 52
1 19 4 40 9 47 4 6 4 18 1 26 -3 8 -1 18 4 21 6 3 8 15 5 25 -3 10 0 22 5 25
6 3 8 15 5 26 -3 12 0 20 7 20 7 0 10 7 6 16 -4 9 -1 23 5 30 6 7 8 18 4 24
-4 6 -1 17 5 25 6 8 9 18 6 23 -3 6 0 15 8 21 8 7 12 21 9 31 -3 12 0 20 7 20
7 0 9 8 5 20 -4 13 -1 22 9 26 8 3 12 12 9 20 -3 8 0 21 7 29 6 8 9 19 5 25
-3 5 1 13 10 16 10 4 13 13 10 25 -4 12 -1 21 8 25 9 3 13 13 10 25 -3 10 0
19 6 19 6 0 11 11 11 25 0 14 5 25 10 25 6 0 10 9 10 19 0 11 5 23 10 26 6 3
10 15 10 26 0 10 5 19 10 19 6 0 10 9 10 20 0 11 5 20 10 20 6 0 10 9 10 19 0
11 5 23 10 26 6 3 10 14 10 25 0 10 7 20 15 24 8 3 12 12 9 21 -4 8 1 17 10
21 9 3 16 15 16 25 0 10 5 19 10 19 6 0 10 9 10 19 0 10 7 22 16 25 8 3 13 10
10 15 -4 5 0 15 7 23 7 7 16 21 20 31 3 9 11 17 18 17 6 0 8 7 5 15 -3 9 1 18
9 21 8 4 15 15 15 25 0 10 5 19 10 19 6 0 15 11 20 25 5 14 14 25 19 25 6 0 8
7 5 15 -4 8 1 17 10 21 9 3 16 13 16 20 0 8 7 17 15 20 8 4 15 13 15 20 0 8 7
17 15 20 8 4 15 15 15 25 0 10 7 19 15 19 8 0 15 9 15 19 0 10 7 22 16 25 8 3
13 10 9 15 -3 6 4 15 15 21 11 6 18 15 15 20 -3 5 4 14 15 20 11 6 18 15 15
20 -3 5 4 14 15 20 11 6 18 15 15 21 -4 5 0 12 8 15 8 3 17 14 20 25 3 10 12
19 21 19 9 0 16 8 16 20 0 11 7 20 15 20 8 0 15 7 15 15 0 9 7 18 15 21 8 4
15 13 15 20 0 8 7 17 15 20 8 4 15 12 15 20 0 8 7 14 15 14 8 0 15 7 15 15 0
9 7 18 15 21 8 4 15 13 15 21 0 8 9 17 20 20 11 3 20 12 20 19 0 8 7 17 15 20
8 4 15 12 15 20 0 8 7 14 15 14 8 0 15 5 15 11 0 7 10 22 23 34 27 28 31 29
24 11z"/>
</g>
</svg>
