<?xml version="1.0" standalone="no"?>
<!DOCTYPE svg PUBLIC "-//W3C//DTD SVG 20010904//EN"
 "http://www.w3.org/TR/2001/REC-SVG-20010904/DTD/svg10.dtd">
<svg version="1.0" xmlns="http://www.w3.org/2000/svg"
 width="938.000000pt" height="1280.000000pt" viewBox="0 0 938.000000 1280.000000"
 preserveAspectRatio="xMidYMid meet">
<metadata>
Created by potrace 1.15, written by Peter Selinger 2001-2017
</metadata>
<g transform="translate(0.000000,1280.000000) scale(0.100000,-0.100000)"
fill="#ffffff" stroke="none">
<path d="M2680 12791 c-47 -10 -112 -44 -154 -82 -78 -68 -116 -214 -83 -317
9 -27 217 -397 462 -822 246 -425 443 -776 438 -780 -4 -4 -633 -369 -1398
-810 -765 -442 -1424 -826 -1465 -854 -230 -157 -405 -426 -461 -711 -20 -101
-17 -320 5 -425 21 -98 56 -201 96 -280 16 -31 424 -742 907 -1580 484 -839
1406 -2436 2048 -3550 642 -1114 1180 -2043 1194 -2065 161 -250 420 -428 713
-490 213 -46 463 -20 668 69 75 32 3133 1794 3244 1869 220 148 390 398 457
673 28 114 31 358 6 471 -40 178 -65 230 -327 683 -103 179 -1016 1763 -2030
3520 -1013 1757 -1866 3232 -1896 3277 -157 239 -403 411 -686 480 -58 14
-110 18 -248 16 -96 -1 -193 -3 -214 -5 l-39 -3 -459 795 c-276 478 -473 810
-496 833 -68 69 -190 108 -282 88z"/>
</g>
</svg>
