<?xml version="1.0" standalone="no"?>
<!DOCTYPE svg PUBLIC "-//W3C//DTD SVG 20010904//EN"
 "http://www.w3.org/TR/2001/REC-SVG-20010904/DTD/svg10.dtd">
<svg version="1.0" xmlns="http://www.w3.org/2000/svg"
 width="1112.000000pt" height="1280.000000pt" viewBox="0 0 1112.000000 1280.000000"
 preserveAspectRatio="xMidYMid meet">
<metadata>
Created by potrace 1.15, written by Peter Selinger 2001-2017
</metadata>
<g transform="translate(0.000000,1280.000000) scale(0.100000,-0.100000)"
fill="#3f51b5" stroke="none">
<path d="M5210 12790 c-1825 -120 -3456 -1108 -4407 -2670 -432 -711 -690
-1490 -780 -2360 -23 -231 -24 -809 0 -1040 108 -1042 468 -1977 1077 -2795
279 -375 641 -748 1016 -1046 164 -129 383 -284 391 -275 11 11 213 892 213
929 0 8 -55 59 -122 113 -155 124 -483 450 -619 615 -574 695 -934 1523 -1043
2399 -144 1153 150 2330 817 3267 305 429 669 796 1097 1105 445 321 994 579
1532 718 1838 474 3763 -197 4902 -1710 187 -248 303 -437 445 -721 156 -311
262 -596 346 -924 401 -1575 -41 -3233 -1172 -4396 -137 -141 -310 -299 -430
-393 -35 -27 -63 -54 -63 -60 -1 -26 255 -906 263 -906 25 0 378 270 547 418
110 96 349 331 459 452 726 795 1210 1809 1375 2880 48 308 59 470 60 835 1
358 -7 492 -49 792 -339 2432 -2254 4362 -4685 4723 -74 11 -205 27 -290 35
-187 19 -693 27 -880 15z"/>
<path d="M5310 11218 c-966 -57 -1895 -486 -2575 -1189 -599 -618 -959 -1369
-1081 -2249 -25 -183 -30 -665 -9 -870 81 -795 383 -1519 886 -2127 83 -100
368 -397 375 -390 2 1 46 203 99 447 52 245 97 451 100 458 3 7 -22 49 -55 92
-215 283 -402 646 -503 982 -103 337 -144 651 -134 1008 14 474 112 875 317
1295 402 826 1167 1450 2045 1669 298 74 445 91 795 90 317 0 436 -12 688 -69
742 -167 1399 -602 1854 -1226 308 -422 498 -902 575 -1449 25 -177 24 -613
-1 -795 -52 -382 -154 -706 -326 -1042 -85 -167 -229 -390 -339 -526 l-71 -87
117 -433 c64 -237 118 -434 120 -437 9 -10 349 346 436 455 501 629 789 1350
858 2143 16 181 7 648 -16 812 -49 367 -148 736 -280 1045 -466 1091 -1397
1918 -2525 2244 -289 84 -577 133 -884 151 -198 11 -255 11 -466 -2z"/>
<path d="M5418 8480 c-428 -54 -791 -311 -976 -691 -89 -183 -125 -340 -125
-544 0 -209 38 -377 130 -560 174 -349 514 -603 897 -670 114 -19 318 -19 432
0 306 54 591 229 780 480 299 397 332 945 82 1370 -182 310 -475 522 -823 596
-105 22 -301 31 -397 19z"/>
<path d="M4490 5691 c-84 -26 -154 -86 -192 -166 l-28 -60 0 -2616 0 -2616 30
-61 c35 -68 82 -115 149 -146 46 -21 49 -21 1106 -21 l1060 0 54 30 c68 37
125 102 148 168 17 50 18 172 18 2647 0 2475 -1 2597 -18 2647 -23 66 -85 136
-151 171 l-51 27 -1050 2 c-577 1 -1061 -2 -1075 -6z"/>
</g>
</svg>
