<?xml version="1.0" standalone="no"?>
<!DOCTYPE svg PUBLIC "-//W3C//DTD SVG 20010904//EN"
 "http://www.w3.org/TR/2001/REC-SVG-20010904/DTD/svg10.dtd">
<svg version="1.0" xmlns="http://www.w3.org/2000/svg"
 width="1280.000000pt" height="1132.000000pt" viewBox="0 0 1280.000000 1132.000000"
 preserveAspectRatio="xMidYMid meet">
<metadata>
Created by potrace 1.15, written by Peter Selinger 2001-2017
</metadata>
<g transform="translate(0.000000,1132.000000) scale(0.100000,-0.100000)"
fill="#ffffff" stroke="none">
<path d="M1577 11310 c-89 -23 -137 -59 -249 -189 -437 -505 -826 -1247 -1053
-2011 -127 -429 -205 -849 -251 -1355 -23 -241 -25 -864 -6 -1095 90 -1047
348 -1908 817 -2725 150 -262 406 -617 553 -768 112 -115 221 -154 343 -123
155 40 259 168 260 321 1 111 -20 159 -123 278 -454 526 -822 1272 -1012 2052
-111 453 -163 860 -173 1350 -12 597 47 1124 187 1670 193 757 555 1483 985
1980 119 138 139 182 133 305 -3 70 -9 94 -33 139 -34 62 -96 120 -162 151
-52 24 -158 34 -216 20z"/>
<path d="M11064 11311 c-151 -39 -254 -173 -254 -331 0 -106 24 -157 135 -285
430 -497 792 -1223 985 -1980 140 -546 199 -1073 187 -1670 -10 -490 -62 -897
-173 -1350 -190 -780 -558 -1526 -1012 -2052 -103 -119 -124 -167 -123 -278 1
-186 145 -325 336 -327 138 -2 225 62 425 312 102 128 307 431 395 585 469
817 727 1678 817 2725 19 231 17 854 -6 1095 -46 506 -124 926 -251 1355 -227
764 -614 1503 -1053 2011 -92 108 -138 146 -206 174 -45 19 -157 28 -202 16z"/>
<path d="M3195 10037 c-101 -34 -172 -98 -314 -287 -293 -389 -531 -893 -661
-1405 -220 -860 -189 -1812 83 -2621 168 -496 446 -998 711 -1282 75 -80 118
-108 198 -128 233 -60 457 153 409 389 -15 76 -41 121 -120 212 -125 143 -252
339 -361 555 -438 872 -511 2000 -189 2955 137 406 330 760 562 1030 33 39 71
94 84 122 99 216 -52 458 -291 470 -41 1 -88 -3 -111 -10z"/>
<path d="M9415 10037 c-90 -30 -167 -93 -203 -164 -72 -142 -48 -275 75 -418
328 -382 582 -943 693 -1530 100 -537 88 -1126 -35 -1661 -108 -468 -329 -952
-577 -1262 -180 -225 -182 -229 -195 -339 -9 -80 27 -180 87 -247 107 -116
265 -145 407 -74 130 65 410 450 594 815 201 401 349 864 409 1283 125 865 38
1669 -263 2435 -190 483 -570 1058 -755 1143 -67 30 -176 39 -237 19z"/>
<path d="M4650 8771 c-109 -36 -199 -125 -333 -331 -159 -246 -266 -538 -324
-885 -26 -158 -26 -602 0 -760 72 -433 241 -819 474 -1083 66 -75 110 -105
189 -128 104 -30 230 -1 315 74 95 83 134 245 89 365 -12 32 -48 90 -80 130
-245 305 -361 714 -329 1159 24 345 138 653 325 883 84 104 99 142 99 250 0
78 -4 97 -28 146 -32 67 -100 132 -165 162 -51 22 -187 33 -232 18z"/>
<path d="M7900 8763 c-157 -54 -252 -217 -220 -377 15 -76 30 -105 95 -186
135 -168 223 -349 280 -574 80 -315 70 -691 -26 -994 -43 -137 -136 -323 -211
-421 -100 -131 -125 -176 -137 -244 -35 -188 100 -371 293 -393 122 -15 238
41 336 162 180 221 320 507 398 809 40 156 50 211 67 380 49 475 -40 958 -250
1363 -96 184 -240 378 -320 433 -84 58 -211 75 -305 42z"/>
<path d="M6192 7810 c-180 -47 -332 -172 -417 -340 -56 -111 -69 -171 -69
-305 0 -103 4 -132 28 -202 55 -168 180 -311 341 -388 107 -51 177 -67 298
-67 115 0 171 14 286 69 236 113 383 362 368 623 -17 296 -213 539 -493 610
-101 26 -242 26 -342 0z"/>
<path d="M6338 5649 c-139 -20 -270 -131 -343 -292 -21 -46 -90 -283 -335
-1157 -38 -135 -119 -423 -180 -640 -61 -217 -151 -537 -200 -710 -49 -173
-170 -603 -269 -955 -462 -1643 -531 -1888 -531 -1891 0 -2 864 -4 1920 -4
1056 0 1920 2 1920 4 0 2 -79 284 -176 627 -96 343 -211 750 -254 904 -43 154
-165 586 -270 960 -105 374 -227 806 -270 960 -394 1404 -524 1857 -545 1902
-70 154 -204 272 -327 288 -24 4 -52 8 -63 9 -11 2 -46 -1 -77 -5z"/>
</g>
</svg>
