<?xml version="1.0" standalone="no"?>
<!DOCTYPE svg PUBLIC "-//W3C//DTD SVG 20010904//EN"
 "http://www.w3.org/TR/2001/REC-SVG-20010904/DTD/svg10.dtd">
<svg version="1.0" xmlns="http://www.w3.org/2000/svg"
 width="200.000000pt" height="200.000000pt" viewBox="0 0 200.000000 200.000000"
 preserveAspectRatio="xMidYMid meet">
<metadata>
Created by potrace 1.10, written by Peter Selinger 2001-2011
</metadata>
<g transform="translate(0.000000,200.000000) scale(0.100000,-0.100000)"
fill="#000000" stroke="none">
<path d="M1004 1716 c-49 -22 -74 -61 -74 -117 l0 -49 -131 0 c-96 0 -139 -4
-163 -15 -67 -32 -88 -127 -40 -184 36 -43 82 -54 217 -50 l117 4 0 -57 0 -58
-45 0 c-87 0 -135 -45 -135 -126 0 -39 5 -51 34 -80 28 -28 42 -34 75 -34 84
0 131 49 131 135 l0 45 143 0 c156 0 174 5 202 60 26 50 19 96 -19 138 l-34
37 -146 3 -146 3 0 58 0 58 29 -5 c74 -11 151 49 151 116 -1 91 -88 153 -166
118z m95 -87 c13 -24 13 -29 -2 -53 -15 -22 -25 -26 -62 -26 l-45 0 0 37 c0
48 25 75 64 71 21 -2 35 -12 45 -29z m-122 -105 c8 -21 -13 -42 -28 -27 -13
13 -5 43 11 43 6 0 13 -7 17 -16z m-47 -100 l0 -54 -132 0 c-142 0 -168 9
-168 55 0 45 26 54 160 57 69 2 128 2 133 0 4 -2 7 -28 7 -58z m47 -80 c7 -18
-17 -38 -31 -24 -11 11 -1 40 14 40 6 0 13 -7 17 -16z m296 -66 c22 -26 22
-43 -3 -68 -18 -18 -33 -20 -150 -20 l-130 0 0 58 0 57 132 -3 c120 -3 135 -5
151 -24z m-296 -114 c7 -18 -17 -38 -31 -24 -11 11 -1 40 14 40 6 0 13 -7 17
-16z m-47 -63 c0 -46 -17 -80 -44 -87 -67 -16 -105 74 -43 104 12 6 37 11 55
11 29 1 32 -2 32 -28z"/>
<path d="M433 814 c-19 -8 -33 -10 -33 -4 0 5 -4 10 -10 10 -13 0 -13 -27 0
-35 5 -3 19 -1 30 5 19 10 20 8 19 -52 0 -82 -17 -133 -44 -133 -26 0 -33 55
-11 78 22 21 20 30 -3 18 -47 -26 -47 -101 0 -116 46 -15 78 54 79 166 0 43 4
58 16 63 22 8 31 7 17 -2 -16 -10 -30 -192 -14 -192 6 0 11 10 12 23 3 99 7
145 13 165 6 19 4 22 -16 21 -13 0 -38 -7 -55 -15z"/>
<path d="M1135 796 c-8 -19 -15 -55 -16 -78 -1 -41 -1 -42 -11 -15 -8 22 -14
26 -31 21 -36 -11 -43 -22 -39 -59 6 -48 29 -56 57 -21 l22 28 7 -26 c6 -26
29 -35 41 -16 5 8 12 7 22 -2 12 -10 18 -9 29 7 12 17 14 17 14 2 0 -20 11
-22 28 -5 9 9 12 9 12 0 0 -7 4 -12 9 -12 5 0 6 20 3 45 -3 32 -1 45 8 45 9 0
11 -10 7 -34 -6 -36 14 -69 28 -47 4 7 13 6 26 -2 17 -10 23 -9 39 13 l20 25
0 -24 c0 -16 4 -21 9 -15 10 9 15 45 13 77 -3 28 -22 20 -23 -10 l-1 -28 -7
29 c-3 16 -11 31 -18 33 -18 6 -53 -34 -53 -62 0 -14 -5 -25 -10 -25 -7 0 -8
13 -5 34 6 29 4 35 -15 41 -17 5 -21 13 -17 31 4 25 -7 32 -19 13 -3 -6 -6
-33 -5 -60 0 -26 -4 -51 -9 -54 -6 -4 -10 10 -10 34 0 23 -4 41 -10 41 -5 0
-10 -11 -10 -24 0 -13 -3 -31 -6 -40 -11 -29 -24 -16 -24 24 0 50 -18 53 -22
3 -2 -20 -8 -38 -15 -40 -20 -7 -20 30 -1 70 23 45 28 108 10 114 -7 3 -19
-10 -27 -31z m-53 -133 c6 -7 5 -14 -3 -18 -14 -9 -31 15 -24 33 3 8 6 19 6
25 1 7 4 3 6 -8 3 -11 9 -25 15 -32z m303 7 c-8 -38 -29 -34 -33 6 -3 28 -3
28 12 9 15 -20 15 -20 16 4 0 13 3 22 6 18 3 -3 3 -20 -1 -37z"/>
<path d="M766 794 c-3 -9 -6 -28 -6 -44 0 -19 -6 -29 -19 -33 -23 -6 -38 -62
-21 -82 6 -7 22 -12 36 -11 24 3 25 5 27 94 2 87 -3 111 -17 76z m-6 -113 c0
-32 -14 -49 -25 -31 -9 15 3 60 15 60 6 0 10 -13 10 -29z"/>
<path d="M978 710 c-2 -22 0 -40 4 -40 5 0 8 7 8 16 0 8 4 13 8 10 5 -3 9 -20
9 -38 1 -25 -1 -28 -6 -14 -6 15 -10 16 -15 7 -11 -17 8 -35 28 -28 20 8 21
60 1 77 -8 7 -15 21 -15 31 0 36 -18 19 -22 -21z"/>
<path d="M1497 744 c-4 -4 -4 -17 -1 -28 3 -12 1 -33 -5 -46 -9 -23 -10 -22
-10 13 -1 30 -5 38 -18 35 -9 -2 -18 -10 -20 -18 -4 -13 -3 -13 6 0 8 12 11 6
11 -26 0 -47 7 -59 27 -43 9 9 13 8 13 0 0 -6 9 -11 19 -11 20 0 31 18 31 50
0 10 6 20 13 23 6 2 9 8 5 12 -4 4 -14 3 -22 -4 -11 -9 -15 -8 -21 6 -5 10 -9
21 -9 25 -2 11 -12 18 -19 12z"/>
<path d="M583 719 c-24 -9 -39 -48 -29 -74 10 -28 37 -30 57 -4 l19 24 0 -24
c0 -16 4 -21 9 -15 10 9 15 45 13 77 -3 28 -22 20 -23 -10 -2 -27 -2 -27 -6
-3 -6 34 -14 39 -40 29z m24 -41 c-4 -42 -31 -44 -35 -3 -3 29 -3 29 12 10 15
-20 15 -20 16 3 0 12 2 22 6 22 3 0 3 -15 1 -32z"/>
<path d="M672 718 c-14 -14 -16 -32 -3 -23 6 3 11 -11 13 -32 2 -20 8 -38 14
-40 8 -3 10 11 7 44 -6 55 -14 68 -31 51z"/>
<path d="M507 713 c-11 -10 -8 -25 3 -18 6 4 10 -8 10 -29 0 -19 5 -38 11 -41
15 -10 16 -6 11 48 -4 43 -17 59 -35 40z"/>
<path d="M801 701 c-6 -11 -11 -28 -11 -39 0 -22 27 -49 38 -37 4 4 1 10 -5
12 -22 8 -13 73 9 73 6 0 8 -14 5 -34 -6 -38 11 -64 30 -45 16 16 28 -8 13
-26 -7 -8 -10 -22 -6 -30 8 -22 37 -18 43 5 3 11 12 20 21 20 12 0 13 3 5 11
-7 7 -10 30 -6 60 4 33 2 49 -6 49 -10 0 -16 -39 -13 -82 1 -10 -3 -18 -9 -18
-5 0 -7 5 -4 10 3 6 1 10 -4 10 -6 0 -11 18 -11 40 0 22 -4 40 -10 40 -5 0
-10 -18 -10 -40 0 -22 -4 -40 -9 -40 -5 0 -8 17 -7 38 1 31 -3 38 -21 40 -14
2 -26 -4 -32 -17z"/>
<path d="M100 470 c0 -5 5 -10 10 -10 6 0 10 -18 10 -40 0 -22 5 -40 10 -40 6
0 10 18 10 40 0 22 5 40 10 40 6 0 10 5 10 10 0 6 -13 10 -30 10 -16 0 -30 -4
-30 -10z"/>
<path d="M280 430 c0 -27 5 -50 10 -50 6 0 10 14 10 31 0 19 4 28 11 23 6 -3
9 -15 6 -25 -3 -10 -1 -22 4 -25 5 -3 9 11 9 30 0 25 -4 36 -15 36 -8 0 -15 7
-15 15 0 8 -4 15 -10 15 -5 0 -10 -22 -10 -50z"/>
<path d="M470 430 c0 -27 5 -50 10 -50 6 0 10 23 10 50 0 28 -4 50 -10 50 -5
0 -10 -22 -10 -50z"/>
<path d="M834 449 c3 -17 6 -40 6 -50 0 -30 28 -22 33 9 l4 27 2 -27 c2 -42
27 -35 35 10 8 51 8 62 -3 62 -5 0 -12 -12 -14 -27 l-4 -28 -2 28 c0 16 -7 27
-15 27 -8 0 -17 -12 -19 -27 l-4 -28 -2 28 c0 15 -6 27 -12 27 -8 0 -9 -11 -5
-31z"/>
<path d="M1014 464 c3 -9 7 -32 7 -52 1 -28 3 -31 6 -12 7 40 23 48 23 12 0
-18 5 -32 10 -32 6 0 10 14 10 31 0 23 -5 32 -21 36 -12 3 -18 11 -15 19 3 8
-1 14 -10 14 -11 0 -14 -6 -10 -16z"/>
<path d="M1230 461 c5 -11 10 -33 10 -50 0 -17 5 -31 10 -31 6 0 10 10 10 23
0 12 7 34 14 50 12 22 13 27 1 27 -7 0 -16 -8 -18 -17 -4 -17 -5 -17 -6 0 0 9
-8 17 -16 17 -12 0 -13 -4 -5 -19z"/>
<path d="M1510 430 c0 -48 19 -74 21 -27 l0 22 11 -22 c15 -30 30 -29 18 1 -5
15 -5 27 2 34 17 17 1 42 -27 42 -23 0 -25 -3 -25 -50z"/>
<path d="M1764 464 c3 -9 7 -32 7 -52 1 -28 3 -31 6 -12 7 40 23 48 23 12 0
-18 5 -32 10 -32 6 0 10 14 10 31 0 23 -5 32 -21 36 -12 3 -18 11 -15 19 3 8
-1 14 -10 14 -11 0 -14 -6 -10 -16z"/>
<path d="M968 458 c-9 -27 7 -73 27 -77 16 -3 17 -1 6 12 -7 9 -12 24 -11 34
3 29 1 43 -9 43 -5 0 -11 -6 -13 -12z"/>
<path d="M232 451 c-21 -13 -11 -66 12 -66 11 0 21 6 24 14 3 10 0 12 -12 8
-11 -5 -16 -1 -16 13 0 14 5 18 18 13 15 -6 15 -5 3 10 -7 9 -14 17 -15 17 0
0 -7 -4 -14 -9z"/>
<path d="M363 453 c-15 -6 -18 -73 -3 -73 6 0 8 10 4 24 -3 13 -1 27 5 30 7 5
11 -4 11 -23 0 -17 5 -31 10 -31 14 0 12 56 -2 67 -7 6 -19 8 -25 6z"/>
<path d="M421 451 c-7 -5 -11 -21 -9 -37 4 -39 42 -41 46 -3 3 29 -17 52 -37
40z"/>
<path d="M510 445 c-17 -21 -4 -67 18 -63 22 4 29 63 8 71 -8 3 -20 -1 -26 -8z"/>
<path d="M576 452 c-13 -12 -5 -62 12 -72 14 -9 13 -10 -8 -4 -24 6 -24 5 -8
-12 24 -25 40 -7 42 45 1 30 -3 41 -16 44 -9 3 -19 2 -22 -1z"/>
<path d="M733 453 c-18 -6 -16 -23 5 -40 16 -14 16 -14 0 -9 -22 7 -24 -12 -2
-21 27 -10 40 14 19 37 -16 18 -17 20 -2 14 9 -3 17 -2 17 4 0 12 -21 21 -37
15z"/>
<path d="M1128 453 c-13 -3 -18 -14 -18 -39 0 -19 5 -34 10 -34 6 0 10 14 10
31 0 17 4 28 10 24 6 -3 10 -17 10 -31 0 -13 5 -24 11 -24 11 0 5 58 -8 70 -4
3 -16 5 -25 3z"/>
<path d="M1350 421 c0 -37 2 -41 25 -41 22 0 25 4 25 35 0 19 -4 35 -10 35 -5
0 -10 -11 -10 -25 0 -14 -5 -25 -11 -25 -7 0 -9 10 -7 25 3 14 1 28 -3 31 -5
3 -9 -13 -9 -35z"/>
<path d="M1428 452 c-13 -2 -18 -13 -18 -38 0 -19 5 -34 10 -34 6 0 10 10 10
23 0 13 5 28 12 35 14 14 9 20 -14 14z"/>
<path d="M1653 453 c-7 -3 -13 -9 -13 -15 0 -6 7 -8 15 -4 20 7 19 -4 -2 -19
-19 -14 -9 -35 18 -35 15 0 19 7 19 34 0 33 -13 47 -37 39z"/>
<path d="M1710 445 c-17 -20 -4 -67 17 -63 9 2 18 9 21 16 2 7 -2 10 -12 6
-12 -4 -16 0 -16 16 0 19 2 20 15 10 12 -10 15 -10 15 3 0 21 -26 29 -40 12z"/>
<path d="M162 418 c2 -25 8 -33 22 -33 11 0 21 6 24 14 3 10 -2 11 -18 6 -15
-5 -20 -4 -16 4 4 6 14 11 22 11 24 0 10 25 -15 28 -20 3 -22 0 -19 -30z"/>
<path d="M630 415 c0 -19 5 -35 10 -35 6 0 10 16 10 35 0 19 -4 35 -10 35 -5
0 -10 -16 -10 -35z"/>
<path d="M662 418 c2 -25 8 -33 22 -33 11 0 21 6 24 13 2 7 -2 10 -12 6 -9 -3
-16 -1 -16 5 0 6 7 11 15 11 8 0 15 7 15 15 0 9 -10 15 -26 15 -23 0 -25 -3
-22 -32z"/>
<path d="M930 415 c0 -19 5 -35 10 -35 6 0 10 16 10 35 0 19 -4 35 -10 35 -5
0 -10 -16 -10 -35z"/>
<path d="M1080 415 c0 -19 5 -35 10 -35 6 0 10 16 10 35 0 19 -4 35 -10 35 -5
0 -10 -16 -10 -35z"/>
<path d="M1289 440 c-1 -5 -2 -16 -3 -22 -3 -17 13 -38 29 -38 17 0 27 28 20
51 -7 20 -44 27 -46 9z"/>
<path d="M1582 418 c2 -25 8 -33 22 -33 11 0 21 6 24 14 3 10 -2 11 -18 6 -15
-5 -20 -4 -16 4 4 6 14 11 22 11 24 0 10 25 -15 28 -20 3 -22 0 -19 -30z"/>
</g>
</svg>
