<?xml version="1.0" standalone="no"?>
<!DOCTYPE svg PUBLIC "-//W3C//DTD SVG 20010904//EN"
 "http://www.w3.org/TR/2001/REC-SVG-20010904/DTD/svg10.dtd">
<svg version="1.0" xmlns="http://www.w3.org/2000/svg"
 width="1280.000000pt" height="1139.000000pt" viewBox="0 0 1280.000000 1139.000000"
 preserveAspectRatio="xMidYMid meet">
<metadata>
Created by potrace 1.15, written by Peter Selinger 2001-2017
</metadata>
<g transform="translate(0.000000,1139.000000) scale(0.100000,-0.100000)"
fill="#3f51b5" stroke="none">
<path d="M6126 11380 c-369 -29 -720 -101 -1003 -206 -146 -54 -384 -173 -508
-254 -493 -323 -823 -779 -1010 -1395 -86 -285 -126 -564 -132 -938 -11 -599
44 -817 279 -1100 45 -55 48 -62 48 -115 0 -88 27 -321 56 -481 127 -716 463
-1378 934 -1836 l92 -89 -22 -80 c-39 -144 -195 -496 -219 -496 -4 0 -564
-119 -1243 -265 -758 -162 -1270 -277 -1324 -296 -658 -231 -1053 -887 -1169
-1940 -32 -283 -31 -789 2 -1102 l6 -57 1751 -2 c963 -1 1704 -4 1646 -7 -85
-5 -96 -7 -60 -12 25 -4 74 -14 110 -22 471 -109 1552 -175 2445 -148 387 11
481 15 630 26 39 3 104 8 145 10 307 22 664 69 855 111 39 9 86 19 105 22 33
6 32 7 -20 12 -96 10 712 20 2080 26 729 3 1326 7 1327 8 1 1 -2 92 -7 202
-46 958 -164 1557 -405 2049 -193 394 -445 661 -768 815 -199 95 -114 76
-1642 365 -517 98 -943 181 -947 184 -4 3 -33 150 -65 327 l-59 321 96 100
c519 537 855 1308 922 2116 9 109 16 148 30 169 74 108 110 256 133 547 9 113
20 234 25 270 48 341 26 759 -60 1109 -125 514 -366 957 -705 1298 -202 202
-388 339 -633 462 -293 148 -570 231 -932 278 -146 18 -616 27 -784 14z"/>
</g>
</svg>
